<?xml version="1.0" standalone="no"?> <!DOCTYPE svg PUBLIC "-//W3C//DTD SVG 1.0//EN" "http://www.w3.org/TR/2001/REC-SVG-20010904/DTD/svg10.dtd" >
<svg xmlns="http://www.w3.org/2000/svg" width="100%" height="100%">
<defs>
<font horiz-adv-x="570" id="GuardianTextEgyp-MediumIt-Web">
<font-face
    font-family=""
    units-per-em="1000"
    panose-1="2 6 6 3 5 5 3 13 8 3"
    ascent="783"
    descent="-217"
    alphabetic="0" />
<missing-glyph horiz-adv-x="500" />
<glyph unicode=" " glyph-name="space" horiz-adv-x="232" />
<glyph unicode="!" glyph-name="exclam" horiz-adv-x="260" d="M133 721H275L146 211H73L133 721ZM86 -11Q54 -11 33 10T12 61Q12 94 35 116T90 138Q122 138 143 117T164 67Q164 34 141 12T86 -11Z" />
<glyph unicode="&quot;" glyph-name="quotedbl" horiz-adv-x="430" d="M322 721H454L385 466H299L322 721ZM126 721H258L188 466H102L126 721Z" />
<glyph unicode="#" glyph-name="numbersign" horiz-adv-x="564" d="M98 511H202L241 669H306L267 511H396L435 669H501L462 511H542L525 404H436L404 277H499L482 170H378L337 0H271L312 170H183L142 0H76L118 170H38L55 277H144L176 404H81L98 511ZM208 272H337L371
409H242L208 272Z" />
<glyph unicode="$" glyph-name="dollar" horiz-adv-x="600" d="M139 84Q147 78 159 70T195 55L263 299L231 315Q171 346 139 385T107 485Q107 530 124 566T173 628T248 668T345 682H366L390 768H453L427 674Q455 669 481 660T526 636T558 604T570 561Q570 544
562 528T543 497H456V591Q449 595 437 601T407 613L347 395L375 381Q435 351 473 310T513 202Q513 105 446 47T255 -11H238L202 -142H138L176 -4Q134 3 105 17T57 49T30 84T21 119Q21 142 29 159T50 188H139V84ZM395 166Q395 206 373 229T313 273L251 49H252Q326
49 360 83T395 166ZM220 521Q220 486 238 463T296 420L353 622H341Q288 622 254 598T220 521Z" />
<glyph unicode="%" glyph-name="percent" horiz-adv-x="900" d="M217 296Q182 296 153 307T102 338T68 388T56 454Q56 503 72 542T116 609T180 652T254 667Q288 667 317 656T369 625T403 575T415 508Q415 459 399 420T356 354T292 311T217 296ZM696 675H774L209
-33H131L696 675ZM217 348Q241 348 258 364T288 406T306 465T312 535Q312 573 297 594T253 615Q229 615 212 600T184 560T167 503T161 434Q161 392 173 370T217 348ZM659 -10Q624 -10 595 1T544 32T510 82T498 148Q498 197 514 236T558 303T622 346T696 361Q730
361 759 350T811 319T845 269T857 202Q857 153 841 114T798 48T734 5T659 -10ZM659 42Q683 42 700 58T730 100T748 159T754 229Q754 267 739 288T695 309Q671 309 654 294T626 254T609 197T603 128Q603 86 615 64T659 42Z" />
<glyph unicode="&amp;" glyph-name="ampersand" horiz-adv-x="730" d="M652 326Q633 281 605 234T539 142L587 73L660 54L651 0H478L442 53Q399 24 351 7T246 -11Q189 -11 145 4T72 44T28 104T13 178Q13 258 62 311T209 402Q188 437 179 469T169 529Q169 577 186
615T234 679T304 719T388 733Q430 733 462 721T517 689T550 642T562 586Q562 550 549 521T510 468T450 425T370 388L503 194Q526 225 543 258T571 327L509 346L516 397H727L718 346L652 326ZM282 68Q316 68 347 78T407 105L238 357Q187 328 170 289T152 196Q152
171 160 148T184 107T224 79T282 68ZM295 555Q295 527 305 499T339 433Q371 448 392 464T426 500T444 541T449 592Q449 627 433 647T385 667Q367 667 351 661T323 640T303 605T295 555Z" />
<glyph unicode="&apos;" glyph-name="quotesingle" horiz-adv-x="234" d="M126 721H258L188 466H102L126 721Z" />
<glyph unicode="(" glyph-name="parenleft" horiz-adv-x="351" d="M214 -149Q183 -117 152 -78T96 8T54 112T38 233Q38 331 68 414T147 566T255 688T375 780L406 743Q355 698 311 643T234 522T184 377T165 205Q165 102 190 24T256 -117L214 -149V-149Z" />
<glyph unicode=")" glyph-name="parenright" horiz-adv-x="351" d="M144 780Q175 748 206 709T262 623T304 519T320 398Q320 300 290 217T211 65T103 -57T-17 -149L-48 -112Q3 -67 47 -12T124 109T174 254T193 426Q193 529 168 607T102 748L144 780V780Z" />
<glyph unicode="*" glyph-name="asterisk" horiz-adv-x="467" d="M260 518L119 415L85 502L251 540L99 599L160 679L267 561L251 721H356L292 559L432 661L467 574L301 536L452 476L391 397L285 516L300 355H196L260 518Z" />
<glyph unicode="+" glyph-name="plus" horiz-adv-x="600" d="M57 362H265V580H346V362H554V287H346V69H265V287H57V362Z" />
<glyph unicode="," glyph-name="comma" horiz-adv-x="312" d="M-36 -125Q34 -97 70 -64T119 17Q114 15 107 13T92 10Q63 10 48 29T32 74Q32 109 57 129T117 150Q154 150 178 125T202 55Q202 29 192 -3T157 -66T89 -124T-22 -167L-36 -125V-125Z" />
<glyph unicode="-" glyph-name="hyphen" horiz-adv-x="381" d="M68 349H333L314 245H49L68 349Z" />
<glyph unicode="." glyph-name="period" horiz-adv-x="312" d="M113 -13Q78 -13 56 10T33 65Q33 103 57 126T118 150Q153 150 175 127T198 71Q198 34 174 11T113 -13Z" />
<glyph unicode="/" glyph-name="slash" horiz-adv-x="375" d="M344 762H424L18 -125H-62L344 762Z" />
<glyph unicode="0" glyph-name="zero" horiz-adv-x="600" d="M256 -12Q203 -12 162 6T91 57T46 136T30 238Q30 309 52 379T116 504T214 594T340 629Q396 629 438 611T509 559T552 480T566 376Q566 307 544 238T482 113T384 23T256 -12ZM258 57Q288 57 312 73T356
116T390 179T414 254T428 335T433 413Q433 481 412 520T337 559Q291 559 259 526T205 442T175 328T165 207Q165 136 185 97T258 57Z" />
<glyph unicode="1" glyph-name="one" horiz-adv-x="600" d="M59 51L201 68L276 496L126 479L135 532L385 625H438L339 68L474 51L464 0H50L59 51Z" />
<glyph unicode="2" glyph-name="two" horiz-adv-x="600" d="M19 69L204 203Q296 269 344 330T392 460Q392 560 294 560Q268 560 251 555T220 541V434H127Q115 446 106 461T97 497Q97 522 111 545T153 587T222 617T318 628Q372 628 412 615T480 580T520 526T534
458Q534 413 517 376T463 302T374 230T248 153L158 102V99H493L466 0H7L19 69Z" />
<glyph unicode="3" glyph-name="three" horiz-adv-x="600" d="M216 -114Q135 -114 83 -93T-1 -46L8 11Q37 -3 83 -18T189 -33Q258 -33 303 3T349 118Q349 174 317 203T215 232H166L178 302H234Q276 302 305 314T353 346T379 393T388 450Q388 508 364 534T282 561Q260
561 244 556T213 543V443H122Q110 454 101 467T92 501Q92 526 106 549T146 589T211 617T299 628Q353 628 393 615T462 578T504 524T518 457Q518 382 472 333T347 267V263Q411 249 449 210T487 104Q487 50 466 10T409 -58T323 -100T216 -114Z" />
<glyph unicode="4" glyph-name="four" horiz-adv-x="600" d="M301 88H-2L10 157L418 617H529L450 165H551L537 88H436L401 -105H267L301 88ZM315 165L367 468H363L106 168V165H315Z" />
<glyph unicode="5" glyph-name="five" horiz-adv-x="600" d="M217 -115Q176 -115 145 -110T88 -96T43 -76T9 -53L19 6Q50 -10 86 -22T180 -34Q218 -34 249 -24T304 7T340 59T353 133Q353 196 321 229T208 263Q178 263 150 259T95 247L180 617H546L518 511H233L190
327Q208 332 230 336T276 340Q330 340 370 326T438 285T478 221T492 139Q492 80 471 33T414 -47T327 -97T217 -115Z" />
<glyph unicode="6" glyph-name="six" horiz-adv-x="600" d="M281 -14Q221 -14 178 6T108 62T67 147T54 255Q54 328 69 390T107 501Q137 565 176 609T260 680T349 720T435 733Q466 733 489 729T531 719T564 703T592 684L582 623Q561 633 529 642T456 652Q425 652
389 641T319 601T255 522T206 393Q241 418 281 432T360 447Q407 447 442 433T502 393T538 334T550 260Q550 201 531 151T476 64T392 7T281 -14ZM278 54Q310 54 335 69T378 111T405 174T415 255Q415 315 389 342T308 369Q281 369 252 361T196 335Q193 326 191 311T186
278T183 241T181 206Q181 170 185 142T200 94T230 64T278 54Z" />
<glyph unicode="7" glyph-name="seven" horiz-adv-x="600" d="M489 506V511H177L138 433H71L110 617H585L570 531L216 -104H67L489 506Z" />
<glyph unicode="8" glyph-name="eight" horiz-adv-x="600" d="M280 -14Q217 -14 169 0T87 39T37 97T20 170Q20 210 36 242T78 299T138 339T211 366V371Q156 400 132 441T107 533Q107 578 125 614T177 677T255 718T355 733Q409 733 450 720T520 685T563 631T578
565Q578 526 564 497T525 447T470 410T404 385V380Q467 350 506 305T546 193Q546 146 527 108T473 42T389 1T280 -14ZM276 53Q342 53 381 86T420 180Q420 207 408 228T375 268T323 303T256 336Q196 316 164 277T132 175Q132 121 167 87T276 53ZM356 416Q379 426
399 439T433 469T456 509T465 562Q465 614 434 640T354 666Q329 666 306 659T266 637T239 602T228 552Q228 504 259 474T356 416Z" />
<glyph unicode="9" glyph-name="nine" horiz-adv-x="600" d="M179 -118Q112 -118 71 -103T4 -68L15 -7Q36 -18 72 -27T156 -37Q192 -37 229 -28T299 10T358 89T400 222Q365 197 324 185T242 172Q196 172 161 186T103 225T68 284T56 357Q56 416 75 466T129 552T212
608T318 629Q378 629 421 609T492 554T533 470T547 362Q547 247 521 163T452 21Q398 -51 326 -84T179 -118ZM300 250Q326 250 353 257T408 282Q411 291 413 305T417 336T420 371T421 405Q421 439 416 468T400 517T369 549T319 561Q289 561 265 547T224 507T198
445T189 365Q189 305 216 278T300 250Z" />
<glyph unicode=":" glyph-name="colon" horiz-adv-x="322" d="M170 286Q135 286 113 309T90 364Q90 402 115 426T176 450Q211 450 233 427T256 371Q256 334 231 310T170 286ZM118 -13Q83 -13 61 10T38 65Q38 103 62 126T123 150Q158 150 180 127T203 71Q203 34
179 11T118 -13Z" />
<glyph unicode=";" glyph-name="semicolon" horiz-adv-x="322" d="M170 286Q135 286 113 309T90 364Q90 402 115 426T176 450Q211 450 233 427T256 371Q256 334 231 310T170 286ZM-33 -125Q37 -97 73 -64T122 17Q117 15 110 13T95 10Q66 10 51 29T35 74Q35 109
60 129T120 150Q157 150 181 125T205 55Q205 29 195 -3T160 -66T92 -124T-19 -167L-33 -125Z" />
<glyph unicode="&lt;" glyph-name="less" horiz-adv-x="600" d="M71 281V358L510 559V471L160 319L510 167V79L71 281Z" />
<glyph unicode="=" glyph-name="equal" horiz-adv-x="600" d="M57 425H541V350H57V425ZM57 231H541V156H57V231Z" />
<glyph unicode="&gt;" glyph-name="greater" horiz-adv-x="600" d="M98 167L448 319L98 471V559L537 357V280L98 79V167Z" />
<glyph unicode="?" glyph-name="question" horiz-adv-x="449" d="M234 665Q223 665 215 665T197 662L168 583H91L106 709Q140 719 176 725T255 732Q300 732 338 722T404 691T447 640T463 568Q463 529 453 500T422 446T371 401T301 359Q278 347 260 337T228 314T207
287T200 249Q200 230 204 211H137Q132 221 129 237T125 270Q125 293 129 312T146 348T180 384T236 425Q257 439 274 453T304 486T324 526T332 576Q332 621 306 642T234 665ZM147 -11Q115 -11 94 10T73 61Q73 94 96 116T151 138Q183 138 204 117T225 67Q225 34 202
12T147 -11Z" />
<glyph unicode="@" glyph-name="at" horiz-adv-x="960" d="M476 -161Q377 -161 300 -135T169 -60T89 61T61 223Q61 321 94 409T187 563T333 668T523 707Q608 707 677 682T796 610T872 494T899 340Q899 269 878 215T821 123T739 67T641 47Q589 47 564 65T527 115H522Q496
88 467 72T401 55Q349 55 315 90T281 200Q281 258 298 309T346 398T419 459T511 482Q532 482 547 479T574 472T595 461T615 449L639 473H705L634 168Q628 139 633 125T662 110Q692 110 722 123T776 163T815 234T830 337Q830 487 752 569T521 651Q430 651 358 618T237
527T161 391T134 225Q134 60 220 -22T478 -104Q546 -104 608 -93T714 -66V-116Q668 -137 608 -149T476 -161ZM445 122Q469 122 486 133T521 162L573 391Q566 406 554 417T516 429Q491 429 470 410T433 359T408 286T399 201Q399 158 409 140T445 122Z" />
<glyph unicode="A" glyph-name="A" horiz-adv-x="708" d="M432 213H191L120 72L196 54L188 0H-49L-40 54L28 72L374 721H498L598 72L658 54L649 0H358L367 54L450 72L432 213ZM225 279H423L404 434Q400 463 398 494T393 553Q390 585 389 615H384Q373 587 361 558Q350
533 337 503T308 442L225 279Z" />
<glyph unicode="B" glyph-name="B" horiz-adv-x="660" d="M-14 54L74 73L177 648L97 667L106 721H410Q519 721 574 678T629 557Q629 524 621 495T592 442T539 403T455 378V372Q535 361 573 322T612 222Q612 118 540 59T319 0H-23L-14 54ZM311 70Q385 70 426 104T468
222Q468 279 439 309T353 340H264L216 70H311ZM346 402Q490 402 490 558Q490 613 462 632T382 651H317L273 402H346Z" />
<glyph unicode="C" glyph-name="C" horiz-adv-x="647" d="M343 -12Q273 -12 217 6T120 60T59 151T37 281Q37 383 68 466T153 609T280 701T440 733Q515 733 563 721T646 693L630 515H554L527 632Q510 642 488 650T429 658Q365 658 318 625T241 537T195 408T180
256Q180 163 217 114T339 64Q373 64 397 69T440 84L505 214H583L543 25Q505 11 454 0T343 -12Z" />
<glyph unicode="D" glyph-name="D" horiz-adv-x="727" d="M-14 54L76 73L177 648L96 667L105 721H403Q556 721 634 649T712 439Q712 336 683 255T600 117T472 30T308 0H-23L-14 54ZM311 71Q437 71 503 174T569 472Q569 524 557 558T522 612T464 641T386 650H319L216
71H311Z" />
<glyph unicode="E" glyph-name="E" horiz-adv-x="639" d="M-14 54L76 73L177 648L96 667L105 721H640L628 532H562L534 651H316L272 403H384L421 494H483L446 244H385L375 338H260L213 69H456L529 215H599L553 0H-23L-14 54Z" />
<glyph unicode="F" glyph-name="F" horiz-adv-x="634" d="M-14 54L75 72L177 648L96 667L105 721H648L635 522H565L539 649H318L272 389H390L428 482H485L446 231H389L381 325H261L215 73L304 54L295 0H-23L-14 54Z" />
<glyph unicode="G" glyph-name="G" horiz-adv-x="714" d="M356 -14Q273 -14 213 7T114 66T57 159T38 280Q38 388 74 472T168 614T301 702T452 733Q536 733 588 723T672 700L660 519H588L559 634Q539 648 513 653T447 658Q385 658 336 629T252 547T198 420T179
255Q179 163 220 113T357 62Q378 62 405 67T451 80L483 262L402 280L411 334H701L692 280L619 262L577 25Q555 17 528 10T471 -3T412 -11T356 -14Z" />
<glyph unicode="H" glyph-name="H" horiz-adv-x="785" d="M-14 54L73 72L176 648L96 667L105 721H409L400 667L318 648L275 402H552L595 648L517 667L526 721H831L821 667L736 648L633 72L712 54L703 0H399L408 54L492 72L539 336H262L215 72L291 54L282 0H-23L-14 54Z" />
<glyph unicode="I" glyph-name="I" horiz-adv-x="354" d="M-18 54L67 72L169 648L92 667L101 721H404L395 667L310 648L208 72L286 54L277 0H-27L-18 54Z" />
<glyph unicode="J" glyph-name="J" horiz-adv-x="477" d="M132 -9Q93 -9 66 -1T20 22T-6 55T-14 91Q-14 109 -7 123T12 149H99V63Q104 62 109 62T120 62Q162 62 186 90T224 190L304 648L224 667L233 721H531L522 667L446 648L363 178Q355 131 334 96T283 37T214
3T132 -9Z" />
<glyph unicode="K" glyph-name="K" horiz-adv-x="713" d="M-14 54L74 72L176 648L96 667L105 721H412L403 667L318 649L262 341L577 648L509 667L518 721H760L751 667L687 649L440 415L595 73L663 54L654 0H480L335 323L249 261L215 72L293 54L284 0H-23L-14 54Z" />
<glyph unicode="L" glyph-name="L" horiz-adv-x="606" d="M-14 54L74 72L176 648L95 667L104 721H421L412 667L318 649L215 71H424L500 243H571L522 0H-23L-14 54Z" />
<glyph unicode="M" glyph-name="M" horiz-adv-x="932" d="M-12 54L74 72L176 648L96 667L105 721H371L411 429Q416 394 418 349T421 262Q422 214 422 166H426Q445 212 464 258Q481 297 501 342T540 425L687 721H978L969 667L875 648L774 73L860 54L851 0H554L563
54L637 73L693 394Q700 432 709 478T726 566Q736 614 746 662H741Q718 615 696 568Q677 528 656 483T616 402L429 24H338L284 399Q279 436 274 481T266 567Q262 614 259 660H254Q249 614 243 567Q238 527 232 481T218 394L162 73L230 54L221 0H-23L-12 54Z" />
<glyph unicode="N" glyph-name="N" horiz-adv-x="761" d="M-14 54L75 73L176 648L96 667L105 721H341L497 366Q509 338 519 307T537 249Q546 217 554 187H559L641 647L561 667L570 721H815L806 667L728 648L606 0H502L316 440Q303 470 293 502T276 560Q268 591
262 620H258L161 73L241 54L232 0H-23L-14 54Z" />
<glyph unicode="O" glyph-name="O" horiz-adv-x="711" d="M321 -12Q256 -12 204 8T115 68T58 162T38 288Q38 393 70 476T154 616T273 703T410 733Q476 733 529 712T619 652T676 558T696 432Q696 325 664 242T579 103T459 17T321 -12ZM325 62Q381 62 424 95T495
185T538 314T553 468Q553 567 517 613T407 659Q351 659 309 625T237 535T194 404T179 250Q179 156 213 109T325 62Z" />
<glyph unicode="P" glyph-name="P" horiz-adv-x="620" d="M-14 54L75 73L176 648L96 667L105 721H394Q456 721 501 708T576 670T620 611T634 536Q634 471 614 426T558 351T476 309T373 295Q331 295 304 299T257 308L215 73L311 54L302 0H-23L-14 54ZM268 368Q284
364 303 362T349 359Q419 359 455 401T492 535Q492 593 468 619T384 646H318L268 368Z" />
<glyph unicode="Q" glyph-name="Q" horiz-adv-x="711" d="M266 -12Q215 3 173 26T101 84T54 170T37 291Q37 396 69 478T153 617T272 703T409 733Q475 733 528 712T618 651T675 555T695 429Q695 330 669 259T602 139T513 65T420 30V26L704 -20L675 -133L266 -12ZM325
61Q381 61 424 94T495 184T538 314T553 468Q553 567 517 613T407 659Q351 659 309 625T237 535T194 404T179 250Q179 156 213 109T325 61Z" />
<glyph unicode="R" glyph-name="R" horiz-adv-x="692" d="M-14 54L77 73L178 647L99 667L108 721H410Q471 721 515 708T589 670T632 613T646 541Q646 495 632 462T594 404T540 366T477 343V339L590 71L644 54L635 0H467L344 314H262L217 72L288 54L279 0H-23L-14
54ZM355 381Q399 381 428 394T474 429T498 480T505 543Q505 595 478 621T392 648H319L273 381H355Z" />
<glyph unicode="S" glyph-name="S" horiz-adv-x="564" d="M237 -12Q154 -12 99 3T5 38L23 196H100L116 92Q139 78 166 70T236 62Q304 62 343 93T382 179Q382 200 377 216T359 246T328 273T280 303L224 334Q163 368 129 411T94 521Q94 567 111 606T160 674T238
718T343 734Q423 734 471 721T550 693L536 548H461L446 635Q440 639 432 643T411 652T380 658T337 661Q287 661 252 635T217 559Q217 541 220 526T234 498T264 471T313 440L368 409Q402 389 429 371T475 331T504 284T514 224Q514 171 497 128T444 53T357 5T237
-12Z" />
<glyph unicode="T" glyph-name="T" horiz-adv-x="649" d="M121 54L213 72L316 651H196L135 500H58L105 721H688L664 500H589L577 651H458L355 72L439 54L430 0H112L121 54Z" />
<glyph unicode="U" glyph-name="U" horiz-adv-x="733" d="M353 -14Q280 -14 229 2T146 46T100 111T85 190Q85 204 86 218T90 247L160 648L83 667L92 721H396L387 667L303 649L232 249Q226 216 226 190Q226 130 260 99T368 67Q405 67 434 75T486 102T523 152T546
229L621 648L542 667L551 721H791L782 667L708 648L630 215Q610 101 543 44T353 -14Z" />
<glyph unicode="V" glyph-name="V" horiz-adv-x="699" d="M134 648L76 667L85 721H369L360 667L278 648L319 352Q324 317 327 274T333 193Q336 148 338 104H343Q362 150 381 194Q398 232 416 274T451 349L598 648L524 667L533 721H764L755 667L689 648L359 0H238L134
648Z" />
<glyph unicode="W" glyph-name="W" horiz-adv-x="1007" d="M135 648L82 667L91 721H358L349 667L273 648L290 409Q292 386 293 362T294 306T295 231T295 128H300Q318 178 336 227Q352 269 371 317T408 406L551 721H649L676 414Q679 377 681 328T685 234Q687 181
688 127H693Q713 181 732 233Q749 278 767 327T802 412L902 648L831 667L840 721H1068L1059 667L990 648L713 0H586L561 293Q557 333 557 378T557 464Q558 510 559 556H554Q537 512 519 467Q504 429 485 383T448 296L314 0H185L135 648Z" />
<glyph unicode="X" glyph-name="X" horiz-adv-x="729" d="M-14 54L56 72L297 369L170 648L106 667L115 721H406L397 667L325 649L413 430H418L586 649L515 667L524 721H758L749 667L682 648L461 365L593 72L657 54L648 0H362L371 54L444 71L341 305H336L151 72L219
54L210 0H-23L-14 54Z" />
<glyph unicode="Y" glyph-name="Y" horiz-adv-x="663" d="M139 54L229 73L269 303L130 648L76 667L85 721H354L345 667L275 648L377 373H381L575 649L506 667L515 721H729L721 667L663 648L410 301L370 73L450 54L441 0H130L139 54Z" />
<glyph unicode="Z" glyph-name="Z" horiz-adv-x="581" d="M-19 66L452 644V649H224L157 510H83L124 721H631L620 655L150 76V72H399L470 218H544L500 0H-30L-19 66Z" />
<glyph unicode="[" glyph-name="bracketleft" horiz-adv-x="374" d="M158 762H415L406 708L271 689L139 -53L268 -71L259 -125H2L158 762Z" />
<glyph unicode="\" glyph-name="backslash" horiz-adv-x="375" d="M115 762H194L291 -125H212L115 762Z" />
<glyph unicode="]" glyph-name="bracketright" horiz-adv-x="374" d="M-24 -71L112 -53L244 689L114 708L123 762H380L224 -125H-33L-24 -71Z" />
<glyph unicode="^" glyph-name="asciicircum" horiz-adv-x="478" d="M274 721H352L457 466H390L297 612L151 466H80L274 721Z" />
<glyph unicode="_" glyph-name="underscore" horiz-adv-x="350" d="M-67 -67H289L276 -133H-79L-67 -67Z" />
<glyph unicode="`" glyph-name="grave" horiz-adv-x="500" d="M186 705L235 802L449 664L427 620L186 705Z" />
<glyph unicode="a" glyph-name="a" horiz-adv-x="587" d="M459 71Q478 73 495 77T527 87L557 97L542 38Q517 18 481 5T411 -9Q335 -9 335 72Q335 80 335 85T337 99H334Q289 48 246 18T147 -12Q115 -12 91 -1T49 31T23 78T14 139Q14 222 41 295T113 422T214 508T329
540Q366 540 387 531T426 505H432L447 542H547L558 537L459 71ZM202 76Q236 76 273 103T353 176L406 426Q392 446 377 458T330 471Q296 471 263 445T204 375T161 275T145 160Q145 115 156 96T202 76Z" />
<glyph unicode="b" glyph-name="b" horiz-adv-x="566" d="M218 -12Q138 -12 90 12T18 71L142 708L70 724L79 775L273 799L286 793L219 452H224Q264 497 308 525T406 553Q436 553 462 543T507 511T536 454T547 368Q547 295 525 227T461 105T358 20T218 -12ZM233
54Q278 54 311 82T366 156T400 256T411 366Q411 421 394 440T344 459Q305 459 272 438T209 390L153 98Q159 81 178 68T233 54Z" />
<glyph unicode="c" glyph-name="c" horiz-adv-x="462" d="M200 -12Q115 -12 65 38T14 183Q14 261 39 329T107 446T210 524T338 553Q406 553 439 530T473 464Q473 447 465 424T446 388H358V484Q345 488 327 488Q288 488 256 465T199 401T162 308T148 197Q148 131
174 103T254 74Q294 74 327 85T404 121L387 58Q358 33 313 11T200 -12Z" />
<glyph unicode="d" glyph-name="d" horiz-adv-x="605" d="M478 71Q497 73 514 77T546 87L576 97L561 38Q536 18 503 5T435 -9Q393 -9 372 14T353 82H349Q334 65 315 48T274 18T225 -4T169 -12Q102 -12 60 31T17 152Q17 232 43 305T114 433T215 520T334 553Q375
553 394 547T431 530L464 708L387 724L396 775L594 799L607 793L478 71ZM223 75Q263 75 296 96T363 152L416 444Q402 461 385 472T338 484Q301 484 267 459T207 392T165 292T149 170Q149 75 223 75Z" />
<glyph unicode="e" glyph-name="e" horiz-adv-x="481" d="M204 -12Q115 -12 65 39T14 188Q14 261 37 327T102 443T201 523T328 553Q404 553 446 521T489 434Q489 381 464 345T393 285T286 249T149 230Q148 223 148 214T147 197Q147 162 154 139T174 101T209 82T257
76Q297 76 336 88T418 123L403 59Q389 47 369 35T324 12T269 -5T204 -12ZM317 486Q287 486 262 472T216 432T181 370T157 291Q202 294 240 303T305 328T348 370T364 431Q364 486 317 486Z" />
<glyph unicode="f" glyph-name="f" horiz-adv-x="371" d="M66 521L135 545Q148 614 174 662T237 741T318 784T414 798Q483 798 517 776T551 716Q551 701 543 684T524 656H438V731Q431 733 425 734T409 736Q382 736 360 728T320 697T288 638T264 542H395L381 471H253L180
36Q160 -83 106 -138T-39 -194Q-91 -194 -122 -172T-154 -114Q-154 -102 -148 -89T-131 -64H-55V-132Q-51 -133 -45 -133Q-23 -133 -6 -126T23 -100T44 -47T61 39L124 471H57L66 521Z" />
<glyph unicode="g" glyph-name="g" horiz-adv-x="497" d="M174 -223Q106 -223 59 -213T-20 -186T-65 -145T-79 -93Q-79 -66 -63 -44T-22 -5T37 26T103 49Q83 63 74 80T64 117Q64 146 80 175T122 228Q87 248 65 279T43 354Q43 400 61 437T109 499T181 538T268 552Q291
552 314 548T357 532L532 556L516 471L415 484V481Q435 462 446 438T457 387Q457 346 440 312T393 253T322 213T232 199Q217 199 198 201T165 208Q150 185 150 166Q150 151 163 142T216 120L280 100Q316 89 345 76T395 44T427 3T439 -50Q439 -88 423 -120T375 -175T292
-210T174 -223ZM227 -2Q187 11 169 17T148 25Q125 17 105 7T68 -17T43 -47T33 -83Q33 -100 40 -114T63 -138T105 -153T172 -158Q250 -158 288 -138T327 -82Q327 -53 301 -35T227 -2ZM234 260Q285 260 311 299T337 406Q337 445 320 468T267 491Q218 491 191 450T164
340Q164 304 181 282T234 260Z" />
<glyph unicode="h" glyph-name="h" horiz-adv-x="614" d="M429 -9Q398 -9 379 7T359 60Q359 79 363 96L421 373Q424 388 426 402T426 428T415 447T390 455Q368 455 347 447T307 426T269 396T235 363L158 0H29L179 707L110 724L119 775L310 799L322 792L251 443H257Q276
463 298 483T345 518T398 543T460 553Q506 553 533 529T561 451Q561 427 555 399L486 71Q505 73 522 77T554 86Q570 90 584 96L569 37Q544 17 507 4T429 -9Z" />
<glyph unicode="i" glyph-name="i" horiz-adv-x="307" d="M173 71Q193 73 211 77T243 87Q260 92 275 97L261 38Q235 18 196 5T117 -9Q86 -9 66 7T46 61Q46 69 47 77T50 96L133 454Q113 451 94 447T60 438Q42 433 26 428L39 487Q53 500 73 512T115 533T159 547T199
553Q226 553 245 540T264 490Q264 481 263 471T259 449L173 71ZM226 631Q194 631 173 651T152 703Q152 734 173 754T226 775Q258 775 279 755T300 703Q300 672 279 652T226 631Z" />
<glyph unicode="j" glyph-name="j" horiz-adv-x="292" d="M-48 -215Q-105 -215 -137 -191T-170 -132Q-170 -104 -148 -80H-65V-153H-60Q-42 -153 -28 -150T-3 -135T16 -105T32 -53L137 454Q117 451 98 447T64 438Q46 433 31 428L44 487Q58 500 77 512T118 533T161
547T201 553Q228 553 247 540T266 490Q266 481 265 471T261 449L162 -26Q151 -77 131 -113T84 -171T24 -204T-48 -215ZM234 631Q202 631 181 651T160 703Q160 734 181 754T234 775Q266 775 287 755T308 703Q308 672 287 652T234 631Z" />
<glyph unicode="k" glyph-name="k" horiz-adv-x="557" d="M179 707L110 724L119 775L310 799L322 792L224 309L247 312Q270 315 287 323T319 348T348 391T379 457Q403 514 431 533T495 553Q521 553 540 539T565 513L552 453H469Q458 432 446 409T418 366T384 330T345
304L430 70Q447 72 464 76T494 85Q509 90 523 96L509 38Q483 18 459 5T402 -9Q372 -9 352 6T316 52T284 134T248 253H211L158 0H29L179 707Z" />
<glyph unicode="l" glyph-name="l" horiz-adv-x="307" d="M165 71Q185 73 204 78T238 88Q256 93 271 99L257 40Q231 20 191 6T108 -9Q77 -9 58 7T38 62Q38 79 42 96L171 707L102 724L111 775L301 799L313 792L165 71Z" />
<glyph unicode="m" glyph-name="m" horiz-adv-x="895" d="M710 -9Q679 -9 660 7T640 60Q640 79 644 96L702 373Q705 385 707 399T708 426T699 447T673 456Q653 456 635 448T599 426T565 397T534 365L456 0H328L407 373Q409 385 411 399T413 426T404 447T379 456Q359
456 341 448T306 427T272 397T239 364L162 0H33L130 454Q111 451 93 447T60 438Q42 433 27 428L40 487Q54 500 73 512T113 533T155 547T194 553Q222 553 239 540T257 491Q257 487 256 479T253 462Q251 451 250 440H256Q277 462 298 482T343 519T391 544T446 553Q492
553 519 527T543 442H549Q570 464 591 484T636 519T685 544T740 553Q787 553 814 529T842 450Q842 427 836 399L766 71Q785 73 802 77T834 87L864 97L850 38Q825 18 788 5T710 -9Z" />
<glyph unicode="n" glyph-name="n" horiz-adv-x="614" d="M486 71Q505 73 522 77T554 86Q570 90 584 96L569 37Q544 17 507 4T429 -9Q398 -9 379 7T359 60Q359 79 363 96L421 373Q424 386 426 400T426 427T415 447T390 455Q368 455 348 447T309 426T273 396T239
363L162 0H33L130 454Q110 451 92 447T59 438Q42 434 27 429L40 488Q54 501 73 513T113 534T155 548T194 553Q222 553 239 540T257 491Q257 486 256 478T253 460Q251 449 250 438H256Q279 462 301 482T348 519T400 544T460 553Q506 553 533 529T561 451Q561 427
555 399L486 71Z" />
<glyph unicode="o" glyph-name="o" horiz-adv-x="549" d="M235 -12Q182 -12 142 5T74 51T32 121T18 209Q18 276 39 338T99 448T193 523T316 552Q367 552 407 535T474 489T516 419T530 331Q530 263 510 201T452 92T359 17T235 -12ZM242 56Q279 56 308 77T357 138T387
231T398 350Q398 419 377 451T307 484Q273 484 244 463T194 402T161 309T149 190Q149 119 171 88T242 56Z" />
<glyph unicode="p" glyph-name="p" horiz-adv-x="587" d="M-62 -171L11 -157L120 454Q101 451 84 447T52 438Q35 433 21 428L34 487Q63 514 105 533T185 553Q213 553 230 542T247 494Q247 490 247 484T245 470L243 452H248Q286 496 326 524T421 553Q451 553 477
542T523 508T554 448T566 360Q566 289 546 224T488 107T393 26T263 -5Q227 -5 206 0T170 14L142 -156L221 -171L213 -217H-70L-62 -171ZM263 60Q307 60 339 87T391 158T422 252T432 351Q432 413 413 436T361 460Q341 460 325 455T294 439T266 417T237 391L185 96Q195
82 211 71T263 60Z" />
<glyph unicode="q" glyph-name="q" horiz-adv-x="588" d="M210 -171L297 -155L347 85H342Q325 65 306 48T265 17T217 -4T160 -12Q96 -12 57 29T18 152Q18 234 45 307T120 434T230 521T365 553Q399 553 426 550T477 541T522 526T565 504L424 -157L490 -171L481
-217H200L210 -171ZM216 75Q259 75 291 97T363 165L425 458Q415 470 396 477T353 484Q312 484 276 458T212 387T168 286T152 166Q152 121 167 98T216 75Z" />
<glyph unicode="r" glyph-name="r" horiz-adv-x="438" d="M338 400V460Q309 444 284 417T236 361L160 0H31L128 454Q108 451 90 447T57 438Q40 433 25 428L38 487Q52 500 71 512T111 533T153 547T192 553Q220 553 236 540T252 493Q252 489 251 481T248 462Q246
451 245 438H251Q287 494 322 523T391 552Q419 552 438 536T457 488Q457 462 444 439T417 400H338Z" />
<glyph unicode="s" glyph-name="s" horiz-adv-x="424" d="M166 -13Q121 -13 87 -4T29 22T-6 58T-18 101Q-18 115 -12 131T6 159H101V67Q114 61 130 57T167 53Q215 53 241 73T267 129Q267 161 249 178T191 219L158 238Q111 265 85 298T58 384Q58 420 71 450T111
503T176 539T262 552Q346 552 384 524T423 453Q423 440 417 424T399 394H309V477Q298 482 286 485T257 489Q217 489 191 472T165 421Q165 390 182 372T240 331L273 312Q322 283 352 248T382 159Q382 124 369 93T329 38T262 1T166 -13Z" />
<glyph unicode="t" glyph-name="t" horiz-adv-x="370" d="M172 73Q200 75 225 80T269 92Q291 99 310 107L296 46Q270 26 231 8T138 -10Q100 -10 75 10T49 75Q49 93 53 110L130 471H54L64 520L146 545L172 669H299L272 542H385L370 471H257L172 73Z" />
<glyph unicode="u" glyph-name="u" horiz-adv-x="594" d="M465 71Q484 73 501 77T533 87L563 97L549 38Q523 18 488 5T414 -9Q375 -9 357 12T346 86L347 94H341Q318 71 298 52T257 19T212 -3T156 -11Q106 -11 77 17T47 101Q47 125 53 152L117 454Q98 450 80 446T48
438Q31 434 16 428L29 487Q58 514 101 533T182 553Q213 553 231 540T249 489Q249 470 243 443L184 167Q181 151 180 137T181 111T193 92T221 85Q260 85 290 108T358 169L437 542H566L465 71Z" />
<glyph unicode="v" glyph-name="v" horiz-adv-x="544" d="M155 0Q149 118 140 230T114 452Q95 448 78 445T47 437Q31 433 17 428L30 487Q43 499 59 511T94 532T131 547T168 553Q194 553 212 537T238 476Q247 419 252 357T259 221Q260 194 259 161T252 77H257Q279
115 300 148T339 211Q354 237 370 266T400 327T425 391T442 453H386L400 526Q413 538 432 546T469 554Q500 554 523 537T546 478Q546 444 523 389T460 269T368 134T259 0H155Z" />
<glyph unicode="w" glyph-name="w" horiz-adv-x="770" d="M128 0Q126 61 125 118T121 231T115 341T106 452Q88 449 72 445T44 437Q30 433 19 429L32 488Q58 512 92 532T161 553Q186 553 204 537T228 477Q233 428 233 369T236 244Q236 212 235 170T228 86H233Q248
126 262 166T291 240Q320 309 346 381T398 542H499Q523 392 526 218Q526 195 526 170T524 124Q523 99 522 75H527Q545 113 563 149T595 217Q626 285 644 342T671 453H614L627 526Q640 538 659 546T695 554Q726 554 749 539T773 483Q773 451 754 396T704 274T630
137T541 0H426Q426 78 425 140T420 264Q417 332 420 406H415Q404 365 395 328T373 262Q346 199 315 134T245 0H128Z" />
<glyph unicode="x" glyph-name="x" horiz-adv-x="535" d="M453 452Q402 389 337 266L414 73Q449 79 475 87Q489 91 501 96L486 37Q461 17 436 4T375 -9Q355 -9 340 -3T312 16T290 52T268 109L231 221H229L181 138Q158 97 140 69T105 24T72 -1T35 -9Q21 -9 4 -2T-22
16L-4 97H75Q133 160 198 282L134 454Q115 450 98 446T66 438Q49 434 35 429L47 488Q76 514 112 533T177 553Q190 553 201 550T222 539T240 516T256 476L303 324H306L345 401Q369 447 387 476T422 523T455 546T491 553Q505 553 520 547T546 530L530 452H453V452Z"
/>
<glyph unicode="y" glyph-name="y" horiz-adv-x="550" d="M27 -217Q-5 -217 -28 -205T-64 -182L-51 -119Q-35 -124 -21 -128T15 -132Q37 -132 57 -130T96 -121T135 -100T177 -62Q174 5 168 76T153 216T135 345T116 453Q97 449 80 445T49 437Q33 433 19 428L31
487Q60 512 97 532T170 553Q196 553 215 539T242 479Q251 431 259 363T271 217Q274 175 272 134T265 49H270Q296 93 316 133T352 208Q383 275 404 333T439 453H381L395 526Q407 538 427 546T465 554Q497 554 520 538T543 480Q543 448 528 400T484 291T416 161T328
18Q286 -47 250 -91T178 -164T107 -204T27 -217Z" />
<glyph unicode="z" glyph-name="z" horiz-adv-x="476" d="M-23 51L344 424L144 434Q136 420 131 408T123 384Q119 372 117 361H67Q64 375 63 388T62 413Q62 474 91 513T175 552Q203 552 228 544T280 523T335 499T397 480L456 542H500V491L131 117L340 106Q348
121 353 136T363 163Q367 177 370 190H421Q424 176 425 163T426 136Q426 72 397 31T313 -11Q284 -11 257 -2T202 19T144 44T78 63L20 0H-23V51Z" />
<glyph unicode="{" glyph-name="braceleft" horiz-adv-x="431" d="M307 -125Q241 -119 197 -107T126 -79T88 -41T77 7Q77 34 88 65T112 126T137 184T149 233Q149 255 126 271T41 301L54 374Q90 377 114 383T155 399T179 420T189 445Q192 465 191 489T187 538T184
587T185 631Q190 661 207 686T257 728T341 754T467 762L458 708Q383 702 352 682T315 627Q312 609 312 586T311 539T311 491T308 448Q306 429 296 412T266 381T213 355T132 335V330Q205 310 235 282T265 222Q265 198 256 169T237 109T217 51T208 4Q208 -25 230
-41T317 -71L307 -125V-125Z" />
<glyph unicode="|" glyph-name="bar" horiz-adv-x="249" d="M85 762H171V-125H85V762Z" />
<glyph unicode="}" glyph-name="braceright" horiz-adv-x="431" d="M130 763Q196 757 240 745T311 717T349 679T360 631Q360 604 349 573T324 512T299 454T288 405Q288 382 311 366T396 337L383 264Q311 258 282 239T248 193Q245 173 246 149T250 100T253 51T252
7Q247 -23 230 -48T180 -90T96 -116T-30 -124L-21 -70Q54 -64 85 -44T122 11Q125 29 125 52T126 99T126 147T129 190Q131 209 141 226T171 257T224 283T305 303V308Q232 328 202 356T172 416Q172 440 181 469T200 529T220 587T229 634Q229 649 224 660T207 679T173
695T120 709L130 763V763Z" />
<glyph unicode="~" glyph-name="asciitilde" horiz-adv-x="445" d="M16 266Q48 329 83 360T163 391Q185 391 205 384T242 368T276 352T306 344Q326 344 343 357T382 399L436 369Q404 306 369 275T289 244Q267 244 248 251T211 267T177 283T147 291Q127 291 109
278T70 235L16 266Z" />
<glyph unicode="&#xa0;" glyph-name="uni00A0" horiz-adv-x="232" />
<glyph unicode="&#xa1;" glyph-name="exclamdown" horiz-adv-x="260" d="M127 -124H-15L114 386H187L127 -124ZM174 608Q206 608 227 587T248 536Q248 503 225 481T170 459Q138 459 117 480T96 530Q96 563 119 585T174 608Z" />
<glyph unicode="&#xa2;" glyph-name="cent" horiz-adv-x="600" d="M219 -8Q149 4 106 53T62 187Q62 260 86 324T152 437T253 516T381 551L405 639H468L443 549Q499 542 531 519T563 460Q563 443 555 423T536 390H456V479Q449 481 441 483T423 486L303 69H306Q352
69 399 85T490 126L475 60Q463 49 444 37T401 15T346 -2T282 -11L241 -154H178L219 -8ZM193 201Q193 145 208 117T249 79L365 486Q329 479 298 454T244 391T207 304T193 201Z" />
<glyph unicode="&#xa3;" glyph-name="sterling" horiz-adv-x="600" d="M77 366H141L152 449Q160 512 187 556T254 628T339 668T433 681Q508 681 549 656T591 586Q591 569 584 553T566 523H473V610Q458 613 439 613Q410 613 385 606T339 581T302 529T277 444L263
366H457L445 298H250L243 257Q232 197 205 162T140 105V101H512L484 0H-4L7 68Q29 79 48 93T82 125T107 170T123 231L132 298H66L77 366Z" />
<glyph unicode="&#xa5;" glyph-name="yen" horiz-adv-x="600" d="M348 158L333 71L416 53L407 0H103L112 53L201 71L216 158H32L41 212H226L241 294H56L65 348H223L127 598L80 616L87 669H343L335 616L265 600L344 373H347L499 600L438 616L446 669H644L636 616L581
598L405 348H565L557 294H372L358 212H542L533 158H348Z" />
<glyph unicode="&#xa6;" glyph-name="brokenbar" horiz-adv-x="249" d="M90 290H166V-125H90V290ZM90 762H166V386H90V762Z" />
<glyph unicode="&#xa7;" glyph-name="section" horiz-adv-x="563" d="M212 -137Q147 -137 102 -125T23 -97L38 25H110L121 -45Q135 -54 157 -62T218 -70Q270 -70 298 -46T326 15Q326 43 310 64T246 107L164 145Q104 173 74 208T43 293Q43 356 84 391T198 443Q171
465 159 494T146 555Q146 598 162 631T207 686T276 721T367 733Q427 733 466 723T534 699L519 585H450L438 644Q428 652 410 659T359 667Q314 667 285 646T255 584Q255 555 271 535T326 498L406 462Q466 435 497 400T528 313Q528 280 517 256T486 213T438 182T377
161Q407 137 422 107T437 45Q437 6 423 -27T381 -85T310 -123T212 -137ZM249 409Q210 404 183 384T155 325Q155 296 178 274T245 232L325 195Q361 203 387 223T414 283Q414 311 393 331T330 372L249 409Z" />
<glyph unicode="&#xa8;" glyph-name="dieresis" horiz-adv-x="500" d="M213 633Q184 633 166 653T147 700Q147 729 168 749T218 769Q248 769 266 749T284 702Q284 673 263 653T213 633ZM422 633Q393 633 375 653T356 700Q356 729 377 749T427 769Q457 769 475
749T493 702Q493 673 472 653T422 633Z" />
<glyph unicode="&#xa9;" glyph-name="copyright" horiz-adv-x="839" d="M430 -15Q352 -15 286 14T170 94T93 213T65 358Q65 435 93 502T170 620T285 699T430 728Q507 728 574 699T690 620T768 503T796 358Q796 281 768 213T691 95T574 15T430 -15ZM430 35Q497
35 553 60T649 130T712 233T734 358Q734 424 712 482T650 584T553 653T430 678Q362 678 306 653T209 585T147 483T125 358Q125 292 147 233T209 130T305 61T430 35ZM440 173Q401 173 368 184T310 219T272 276T258 357Q258 407 273 443T315 502T375 536T448 547Q483
547 512 543T559 532L563 428H513L492 489Q482 493 472 496T444 499Q397 499 379 464T361 367Q361 292 379 257T448 221Q464 221 475 223T494 230L517 299H567L561 193Q541 185 512 179T440 173Z" />
<glyph unicode="&#xaa;" glyph-name="ordfeminine" horiz-adv-x="549" d="M523 274Q500 257 467 244T404 231Q367 231 349 253T336 323H333Q292 275 254 252T165 228Q108 228 78 265T47 364Q47 440 71 506T135 622T225 699T328 727Q362 727 382 719T418 695H423L437
729H530L540 724L450 304Q467 306 482 310T509 318Q523 322 536 327L523 274ZM399 626Q387 644 372 654T328 665Q298 665 270 641T219 578T183 487T169 383Q169 346 179 327T216 307Q248 307 280 330T350 394L399 626Z" />
<glyph unicode="&#xab;" glyph-name="guillemotleft" horiz-adv-x="494" d="M285 252L292 289L476 499H556L399 257L459 26H389L285 252ZM236 252L243 289L427 499H507L350 257L410 26H340L236 252Z" />
<glyph unicode="&#xae;" glyph-name="registered" horiz-adv-x="637" d="M347 179Q288 179 237 201T149 260T90 349T68 457Q68 515 89 566T148 654T237 713T347 735Q406 735 457 714T546 655T605 566T627 457Q627 400 606 349T546 261T457 201T347 179ZM347 224Q397
224 438 241T509 288T555 362T572 457Q572 508 556 551T510 624T439 672T347 690Q296 690 255 673T185 625T139 551T123 457Q123 405 139 362T184 289T255 241T347 224ZM225 361L257 368V555L225 563V592H353Q408 592 437 575T466 520Q466 490 452 475T414 452V448L468
367L491 361V332H416L352 434H323V368L347 361V332H225V361ZM358 471Q381 471 388 484T396 516Q396 556 352 556H323V471H358Z" />
<glyph unicode="&#xaf;" glyph-name="macron" horiz-adv-x="500" d="M168 726H473L460 651H155L168 726Z" />
<glyph unicode="&#xb0;" glyph-name="degree" horiz-adv-x="445" d="M270 396Q233 396 202 409T148 446T112 499T99 564Q99 598 112 628T148 681T202 717T270 730Q307 730 338 717T391 682T427 629T440 564Q440 530 427 500T392 446T338 410T270 396ZM270 452Q318
452 345 484T373 564Q373 611 346 642T270 674Q221 674 194 643T166 564Q166 517 193 485T270 452Z" />
<glyph unicode="&#xb1;" glyph-name="plusminus" horiz-adv-x="600" d="M52 402H260V580H341V402H549V327H341V149H260V327H52V402ZM52 75H549V0H52V75Z" />
<glyph unicode="&#xb4;" glyph-name="acute" horiz-adv-x="500" d="M202 664L426 802L470 703L219 620L202 664Z" />
<glyph unicode="&#xb6;" glyph-name="paragraph" horiz-adv-x="617" d="M268 341Q253 338 235 338Q197 338 165 349T109 381T72 434T59 506Q59 607 121 664T320 721H663L652 667L579 648L425 -125H355L511 655H400L245 -125H175L268 341Z" />
<glyph unicode="&#xb7;" glyph-name="periodcentered" horiz-adv-x="312" d="M161 258Q126 258 104 281T81 336Q81 374 105 397T166 421Q201 421 223 398T246 342Q246 305 222 282T161 258Z" />
<glyph unicode="&#xb8;" glyph-name="cedilla" horiz-adv-x="500" d="M84 -199Q128 -198 156 -194T200 -182T222 -166T228 -146Q228 -131 211 -122T145 -109L170 0H219L204 -57Q270 -63 297 -85T325 -138Q325 -161 315 -180T278 -213T202 -234T78 -242L84 -199Z" />
<glyph unicode="&#xba;" glyph-name="ordmasculine" horiz-adv-x="507" d="M251 228Q205 228 168 243T105 284T64 347T50 427Q50 488 70 543T127 640T214 706T323 731Q369 731 405 716T467 675T507 612T521 533Q521 472 502 417T447 319T361 253T251 228ZM255
293Q288 293 314 311T359 364T388 445T398 551Q398 667 318 667Q287 667 260 649T214 596T183 514T172 408Q172 347 192 320T255 293Z" />
<glyph unicode="&#xbb;" glyph-name="guillemotright" horiz-adv-x="494" d="M516 273L509 236L325 26H245L402 268L342 499H412L516 273ZM467 273L460 236L276 26H196L353 268L293 499H363L467 273Z" />
<glyph unicode="&#xbc;" glyph-name="onequarter" horiz-adv-x="875" d="M31 324L105 337L162 627L84 621L91 662L245 725H298L223 337L292 324L284 277H23L31 324ZM742 721H824L161 -71H79L742 721ZM686 3H485L494 53L767 337H862L809 60H873L862 3H798L777 -107H665L686
3ZM697 60L728 223H725L574 63V60H697Z" />
<glyph unicode="&#xbd;" glyph-name="onehalf" horiz-adv-x="929" d="M31 324L105 337L162 627L84 621L91 662L245 725H298L223 337L292 324L284 277H23L31 324ZM739 721H821L158 -71H76L739 721ZM584 -44L710 54Q737 75 758 94T795 133T818 175T826 226Q826 285
762 285Q740 285 721 278V200H643Q634 208 627 219T620 247Q620 289 665 316T785 344Q866 344 905 311T945 221Q945 189 932 163T895 112T837 65T758 16L688 -25V-28H914L893 -107H571L584 -44Z" />
<glyph unicode="&#xbe;" glyph-name="threequarters" horiz-adv-x="908" d="M176 271Q113 271 79 285T27 313L37 361Q54 352 82 344T149 335Q195 335 219 357T244 417Q244 479 175 479H130L139 534H175Q226 534 249 558T272 619Q272 649 256 662T209 675Q183 675
166 665V600H97Q87 608 81 617T74 642Q74 661 85 677T117 704T165 722T225 728Q302 728 342 700T382 623Q382 599 372 581T346 550T308 527T262 512V508Q307 500 336 475T365 411Q365 379 351 353T313 309T253 281T176 271ZM771 721H853L190 -71H108L771 721ZM719
3H518L527 53L800 337H895L842 60H906L895 3H831L810 -107H698L719 3ZM730 60L761 223H758L607 63V60H730Z" />
<glyph unicode="&#xbf;" glyph-name="questiondown" horiz-adv-x="449" d="M214 -69Q225 -69 233 -69T251 -66L280 13H357L342 -113Q308 -123 272 -129T193 -136Q148 -136 110 -126T44 -95T1 -44T-15 28Q-15 67 -5 96T26 150T77 195T147 237Q170 249 188 259T220
282T241 309T248 347Q248 366 244 385H311Q316 375 319 359T323 326Q323 303 319 284T302 248T268 212T212 171Q191 157 174 143T144 110T124 70T116 20Q116 -25 142 -46T214 -69ZM301 607Q333 607 354 586T375 535Q375 502 352 480T297 458Q265 458 244 479T223
529Q223 562 246 584T301 607Z" />
<glyph unicode="&#xc0;" glyph-name="Agrave" horiz-adv-x="708" d="M432 213H191L120 72L196 54L188 0H-49L-40 54L28 72L374 721H498L598 72L658 54L649 0H358L367 54L450 72L432 213ZM225 279H423L404 434Q400 463 398 494T393 553Q390 585 389 615H384Q373
587 361 558Q350 533 337 503T308 442L225 279ZM292 855L339 952L565 814L543 770L292 855Z" />
<glyph unicode="&#xc1;" glyph-name="Aacute" horiz-adv-x="708" d="M432 213H191L120 72L196 54L188 0H-49L-40 54L28 72L374 721H498L598 72L658 54L649 0H358L367 54L450 72L432 213ZM225 279H423L404 434Q400 463 398 494T393 553Q390 585 389 615H384Q373
587 361 558Q350 533 337 503T308 442L225 279ZM326 814L552 952L594 855L343 770L326 814Z" />
<glyph unicode="&#xc2;" glyph-name="Acircumflex" horiz-adv-x="708" d="M432 213H191L120 72L196 54L188 0H-49L-40 54L28 72L374 721H498L598 72L658 54L649 0H358L367 54L450 72L432 213ZM225 279H423L404 434Q400 463 398 494T393 553Q390 585 389 615H384Q373
587 361 558Q350 533 337 503T308 442L225 279ZM276 804L431 936H493L609 799L580 769L457 841L299 769L276 804Z" />
<glyph unicode="&#xc3;" glyph-name="Atilde" horiz-adv-x="708" d="M432 213H191L120 72L196 54L188 0H-49L-40 54L28 72L374 721H498L598 72L658 54L649 0H358L367 54L450 72L432 213ZM225 279H423L404 434Q400 463 398 494T393 553Q390 585 389 615H384Q373
587 361 558Q350 533 337 503T308 442L225 279ZM263 806Q290 860 322 890T396 920Q413 920 431 914T467 900T500 886T527 880Q544 880 559 890T592 927L635 902Q608 848 577 821T503 794Q486 794 468 800T433 813T401 826T372 832Q354 832 339 820T306 781L263
806Z" />
<glyph unicode="&#xc4;" glyph-name="Adieresis" horiz-adv-x="708" d="M335 783Q306 783 288 803T269 850Q269 879 290 899T340 919Q370 919 388 899T406 852Q406 823 385 803T335 783ZM559 783Q530 783 512 803T493 850Q493 879 514 899T564 919Q594 919 612
899T630 852Q630 823 609 803T559 783ZM432 213H191L120 72L196 54L188 0H-49L-40 54L28 72L374 721H498L598 72L658 54L649 0H358L367 54L450 72L432 213ZM225 279H423L404 434Q400 463 398 494T393 553Q390 585 389 615H384Q373 587 361 558Q350 533 337 503T308
442L225 279Z" />
<glyph unicode="&#xc5;" glyph-name="Aring" horiz-adv-x="708" d="M432 213H191L120 72L196 54L188 0H-49L-40 54L28 72L374 721H498L598 72L658 54L649 0H358L367 54L450 72L432 213ZM225 279H423L404 434Q400 463 398 494T393 553Q390 585 389 615H384Q373
587 361 558Q350 533 337 503T308 442L225 279ZM440 762Q414 762 391 771T351 797T325 834T315 881Q315 905 324 926T351 964T391 989T440 999Q466 999 488 990T527 964T553 927T563 881Q563 856 554 835T528 797T489 772T440 762ZM440 806Q473 806 492 826T512
881Q512 915 493 935T440 955Q407 955 387 935T367 881Q367 846 387 826T440 806Z" />
<glyph unicode="&#xc6;" glyph-name="AE" horiz-adv-x="986" d="M975 532H909L881 651H669L625 403H731L768 494H830L793 244H732L722 338H613L566 69H803L876 215H946L900 0H333L342 54L432 73L455 203H217L125 73L200 54L191 0H-36L-27 54L30 73L467 658L399
667L408 721H987L975 532ZM545 663Q531 634 502 590T431 490L265 269H466L503 475Q508 507 516 540T533 601Q542 633 551 663H545Z" />
<glyph unicode="&#xc7;" glyph-name="Ccedilla" horiz-adv-x="647" d="M162 -199Q206 -198 234 -194T278 -182T300 -166T306 -146Q306 -131 289 -122T223 -109L247 -2Q149 19 93 88T37 281Q37 383 68 466T153 609T280 701T440 733Q515 733 563 721T646 693L630
515H554L527 632Q510 642 488 650T429 658Q365 658 318 625T241 537T195 408T180 256Q180 163 217 114T339 64Q373 64 397 69T440 84L505 214H583L543 25Q505 11 454 0T343 -12Q330 -12 320 -12T294 -10L282 -57Q348 -63 375 -85T403 -138Q403 -161 393 -180T356
-213T280 -234T156 -242L162 -199Z" />
<glyph unicode="&#xc8;" glyph-name="Egrave" horiz-adv-x="639" d="M-14 54L76 73L177 648L96 667L105 721H640L628 532H562L534 651H316L272 403H384L421 494H483L446 244H385L375 338H260L213 69H456L529 215H599L553 0H-23L-14 54ZM245 855L292 952L518 814L496
770L245 855Z" />
<glyph unicode="&#xc9;" glyph-name="Eacute" horiz-adv-x="639" d="M-14 54L76 73L177 648L96 667L105 721H640L628 532H562L534 651H316L272 403H384L421 494H483L446 244H385L375 338H260L213 69H456L529 215H599L553 0H-23L-14 54ZM286 814L512 952L554 855L303
770L286 814Z" />
<glyph unicode="&#xca;" glyph-name="Ecircumflex" horiz-adv-x="639" d="M-14 54L76 73L177 648L96 667L105 721H640L628 532H562L534 651H316L272 403H384L421 494H483L446 244H385L375 338H260L213 69H456L529 215H599L553 0H-23L-14 54ZM229 804L384 936H446L562
799L533 769L410 841L252 769L229 804Z" />
<glyph unicode="&#xcb;" glyph-name="Edieresis" horiz-adv-x="639" d="M-14 54L76 73L177 648L96 667L105 721H640L628 532H562L534 651H316L272 403H384L421 494H483L446 244H385L375 338H260L213 69H456L529 215H599L553 0H-23L-14 54ZM288 783Q259 783 241
803T222 850Q222 879 243 899T293 919Q323 919 341 899T359 852Q359 823 338 803T288 783ZM512 783Q483 783 465 803T446 850Q446 879 467 899T517 919Q547 919 565 899T583 852Q583 823 562 803T512 783Z" />
<glyph unicode="&#xcc;" glyph-name="Igrave" horiz-adv-x="354" d="M-18 54L67 72L169 648L92 667L101 721H404L395 667L310 648L208 72L286 54L277 0H-27L-18 54ZM363 855L410 952L636 814L614 770L363 855Z" />
<glyph unicode="&#xcd;" glyph-name="Iacute" horiz-adv-x="354" d="M-18 54L67 72L169 648L92 667L101 721H404L395 667L310 648L208 72L286 54L277 0H-27L-18 54ZM404 814L630 952L672 855L421 770L404 814Z" />
<glyph unicode="&#xce;" glyph-name="Icircumflex" horiz-adv-x="354" d="M-18 54L67 72L169 648L92 667L101 721H404L395 667L310 648L208 72L286 54L277 0H-27L-18 54ZM347 804L502 936H564L680 799L651 769L528 841L370 769L347 804Z" />
<glyph unicode="&#xcf;" glyph-name="Idieresis" horiz-adv-x="354" d="M-18 54L67 72L169 648L92 667L101 721H404L395 667L310 648L208 72L286 54L277 0H-27L-18 54ZM406 783Q377 783 359 803T340 850Q340 879 361 899T411 919Q441 919 459 899T477 852Q477
823 456 803T406 783ZM630 783Q601 783 583 803T564 850Q564 879 585 899T635 919Q665 919 683 899T701 852Q701 823 680 803T630 783Z" />
<glyph unicode="&#xd0;" glyph-name="Eth" horiz-adv-x="727" d="M-14 54L76 73L120 327H43L56 402H133L177 648L96 667L105 721H403Q556 721 634 649T712 439Q712 336 683 255T600 117T472 30T308 0H-23L-14 54ZM311 71Q437 71 503 174T569 472Q569 524 557 558T522
612T464 641T386 650H319L275 402H434L421 327H261L216 71H311Z" />
<glyph unicode="&#xd1;" glyph-name="Ntilde" horiz-adv-x="761" d="M-14 54L75 73L176 648L96 667L105 721H341L497 366Q509 338 519 307T537 249Q546 217 554 187H559L641 647L561 667L570 721H815L806 667L728 648L606 0H502L316 440Q303 470 293 502T276 560Q268
591 262 620H258L161 73L241 54L232 0H-23L-14 54ZM297 806Q324 860 356 890T430 920Q447 920 465 914T501 900T534 886T561 880Q578 880 593 890T626 927L669 902Q642 848 611 821T537 794Q520 794 502 800T467 813T435 826T406 832Q388 832 373 820T340 781L297
806Z" />
<glyph unicode="&#xd2;" glyph-name="Ograve" horiz-adv-x="711" d="M321 -12Q256 -12 204 8T115 68T58 162T38 288Q38 393 70 476T154 616T273 703T410 733Q476 733 529 712T619 652T676 558T696 432Q696 325 664 242T579 103T459 17T321 -12ZM325 62Q381 62
424 95T495 185T538 314T553 468Q553 567 517 613T407 659Q351 659 309 625T237 535T194 404T179 250Q179 156 213 109T325 62ZM287 855L334 952L560 814L538 770L287 855Z" />
<glyph unicode="&#xd3;" glyph-name="Oacute" horiz-adv-x="711" d="M321 -12Q256 -12 204 8T115 68T58 162T38 288Q38 393 70 476T154 616T273 703T410 733Q476 733 529 712T619 652T676 558T696 432Q696 325 664 242T579 103T459 17T321 -12ZM325 62Q381 62
424 95T495 185T538 314T553 468Q553 567 517 613T407 659Q351 659 309 625T237 535T194 404T179 250Q179 156 213 109T325 62ZM328 814L554 952L596 855L345 770L328 814Z" />
<glyph unicode="&#xd4;" glyph-name="Ocircumflex" horiz-adv-x="711" d="M321 -12Q256 -12 204 8T115 68T58 162T38 288Q38 393 70 476T154 616T273 703T410 733Q476 733 529 712T619 652T676 558T696 432Q696 325 664 242T579 103T459 17T321 -12ZM325 62Q381
62 424 95T495 185T538 314T553 468Q553 567 517 613T407 659Q351 659 309 625T237 535T194 404T179 250Q179 156 213 109T325 62ZM271 804L426 936H488L604 799L575 769L452 841L294 769L271 804Z" />
<glyph unicode="&#xd5;" glyph-name="Otilde" horiz-adv-x="711" d="M321 -12Q256 -12 204 8T115 68T58 162T38 288Q38 393 70 476T154 616T273 703T410 733Q476 733 529 712T619 652T676 558T696 432Q696 325 664 242T579 103T459 17T321 -12ZM325 62Q381 62
424 95T495 185T538 314T553 468Q553 567 517 613T407 659Q351 659 309 625T237 535T194 404T179 250Q179 156 213 109T325 62ZM258 806Q285 860 317 890T391 920Q408 920 426 914T462 900T495 886T522 880Q539 880 554 890T587 927L630 902Q603 848 572 821T498
794Q481 794 463 800T428 813T396 826T367 832Q349 832 334 820T301 781L258 806Z" />
<glyph unicode="&#xd6;" glyph-name="Odieresis" horiz-adv-x="711" d="M321 -12Q256 -12 204 8T115 68T58 162T38 288Q38 393 70 476T154 616T273 703T410 733Q476 733 529 712T619 652T676 558T696 432Q696 325 664 242T579 103T459 17T321 -12ZM325 62Q381
62 424 95T495 185T538 314T553 468Q553 567 517 613T407 659Q351 659 309 625T237 535T194 404T179 250Q179 156 213 109T325 62ZM330 783Q301 783 283 803T264 850Q264 879 285 899T335 919Q365 919 383 899T401 852Q401 823 380 803T330 783ZM554 783Q525 783
507 803T488 850Q488 879 509 899T559 919Q589 919 607 899T625 852Q625 823 604 803T554 783Z" />
<glyph unicode="&#xd7;" glyph-name="multiply" horiz-adv-x="600" d="M75 144L249 320L75 497L130 552L304 375L477 551L532 496L358 320L533 144L478 89L304 265L130 89L75 144Z" />
<glyph unicode="&#xd8;" glyph-name="Oslash" horiz-adv-x="711" d="M647 616Q696 541 696 432Q696 325 664 242T579 103T459 17T321 -12Q204 -12 131 52L49 -38L0 2L89 99Q64 136 51 183T38 288Q38 393 70 476T154 616T273 703T410 733Q471 733 520 715T606 664L683
748L732 708L647 616ZM172 248Q172 218 175 193L538 590Q503 659 407 659Q351 659 308 625T234 533T188 402T172 248ZM325 62Q381 62 425 96T499 186T544 316T560 470Q560 496 557 517L196 122Q230 62 325 62Z" />
<glyph unicode="&#xd9;" glyph-name="Ugrave" horiz-adv-x="733" d="M353 -14Q280 -14 229 2T146 46T100 111T85 190Q85 204 86 218T90 247L160 648L83 667L92 721H396L387 667L303 649L232 249Q226 216 226 190Q226 130 260 99T368 67Q405 67 434 75T486 102T523
152T546 229L621 648L542 667L551 721H791L782 667L708 648L630 215Q610 101 543 44T353 -14ZM306 855L353 952L579 814L557 770L306 855Z" />
<glyph unicode="&#xda;" glyph-name="Uacute" horiz-adv-x="733" d="M353 -14Q280 -14 229 2T146 46T100 111T85 190Q85 204 86 218T90 247L160 648L83 667L92 721H396L387 667L303 649L232 249Q226 216 226 190Q226 130 260 99T368 67Q405 67 434 75T486 102T523
152T546 229L621 648L542 667L551 721H791L782 667L708 648L630 215Q610 101 543 44T353 -14ZM347 814L573 952L615 855L364 770L347 814Z" />
<glyph unicode="&#xdb;" glyph-name="Ucircumflex" horiz-adv-x="733" d="M353 -14Q280 -14 229 2T146 46T100 111T85 190Q85 204 86 218T90 247L160 648L83 667L92 721H396L387 667L303 649L232 249Q226 216 226 190Q226 130 260 99T368 67Q405 67 434 75T486
102T523 152T546 229L621 648L542 667L551 721H791L782 667L708 648L630 215Q610 101 543 44T353 -14ZM290 804L445 936H507L623 799L594 769L471 841L313 769L290 804Z" />
<glyph unicode="&#xdc;" glyph-name="Udieresis" horiz-adv-x="733" d="M353 -14Q280 -14 229 2T146 46T100 111T85 190Q85 204 86 218T90 247L160 648L83 667L92 721H396L387 667L303 649L232 249Q226 216 226 190Q226 130 260 99T368 67Q405 67 434 75T486 102T523
152T546 229L621 648L542 667L551 721H791L782 667L708 648L630 215Q610 101 543 44T353 -14ZM365 783Q336 783 318 803T299 850Q299 879 320 899T370 919Q400 919 418 899T436 852Q436 823 415 803T365 783ZM589 783Q560 783 542 803T523 850Q523 879 544 899T594
919Q624 919 642 899T660 852Q660 823 639 803T589 783Z" />
<glyph unicode="&#xdd;" glyph-name="Yacute" horiz-adv-x="663" d="M139 54L229 73L269 303L130 648L76 667L85 721H354L345 667L275 648L377 373H381L575 649L506 667L515 721H729L721 667L663 648L410 301L370 73L450 54L441 0H130L139 54ZM316 814L542 952L584
855L333 770L316 814Z" />
<glyph unicode="&#xde;" glyph-name="Thorn" horiz-adv-x="611" d="M-13 54L74 73L175 648L96 666L105 721H410L401 666L317 648L303 566H368Q434 566 479 554T551 521T591 470T604 406Q604 347 584 305T529 234T445 193T339 180Q304 180 280 183T236 192L216
73L311 54L301 0H-22L-13 54ZM247 251Q263 248 281 246T322 244Q396 244 428 283T461 403Q461 455 435 475T359 495H290L247 251Z" />
<glyph unicode="&#xdf;" glyph-name="germandbls" horiz-adv-x="642" d="M-85 -132Q-81 -133 -74 -133Q-52 -133 -36 -126T-7 -101T15 -49T34 39L138 565Q162 688 234 743T416 798Q466 798 502 787T562 755T597 708T609 651Q609 620 595 593T558 543T511 499T464
461T428 427T413 397Q413 387 416 380T427 364T447 347T476 324L513 294Q532 279 548 264T576 231T595 195T602 151Q602 118 591 88T555 36T492 0T401 -14Q359 -14 328 -5T275 20T242 56T231 99Q231 113 237 128T255 152H340V66Q352 59 366 55T400 51Q443 51 465
68T487 118Q487 146 470 166T428 205L391 235Q356 263 335 290T314 352Q314 382 327 407T360 454T403 498T446 543T479 591T492 648Q492 690 470 709T408 729Q378 729 356 721T318 692T289 640T266 559L153 36Q130 -82 76 -138T-69 -194Q-120 -194 -151 -170T-182
-113Q-182 -101 -177 -88T-160 -64H-85V-132Z" />
<glyph unicode="&#xe0;" glyph-name="agrave" horiz-adv-x="587" d="M459 71Q478 73 495 77T527 87L557 97L542 38Q517 18 481 5T411 -9Q335 -9 335 72Q335 80 335 85T337 99H334Q289 48 246 18T147 -12Q115 -12 91 -1T49 31T23 78T14 139Q14 222 41 295T113 422T214
508T329 540Q366 540 387 531T426 505H432L447 542H547L558 537L459 71ZM202 76Q236 76 273 103T353 176L406 426Q392 446 377 458T330 471Q296 471 263 445T204 375T161 275T145 160Q145 115 156 96T202 76ZM230 705L279 802L493 664L471 620L230 705Z" />
<glyph unicode="&#xe1;" glyph-name="aacute" horiz-adv-x="587" d="M459 71Q478 73 495 77T527 87L557 97L542 38Q517 18 481 5T411 -9Q335 -9 335 72Q335 80 335 85T337 99H334Q289 48 246 18T147 -12Q115 -12 91 -1T49 31T23 78T14 139Q14 222 41 295T113 422T214
508T329 540Q366 540 387 531T426 505H432L447 542H547L558 537L459 71ZM202 76Q236 76 273 103T353 176L406 426Q392 446 377 458T330 471Q296 471 263 445T204 375T161 275T145 160Q145 115 156 96T202 76ZM265 664L489 802L533 703L282 620L265 664Z" />
<glyph unicode="&#xe2;" glyph-name="acircumflex" horiz-adv-x="587" d="M459 71Q478 73 495 77T527 87L557 97L542 38Q517 18 481 5T411 -9Q335 -9 335 72Q335 80 335 85T337 99H334Q289 48 246 18T147 -12Q115 -12 91 -1T49 31T23 78T14 139Q14 222 41 295T113
422T214 508T329 540Q366 540 387 531T426 505H432L447 542H547L558 537L459 71ZM202 76Q236 76 273 103T353 176L406 426Q392 446 377 458T330 471Q296 471 263 445T204 375T161 275T145 160Q145 115 156 96T202 76ZM192 654L352 799H414L525 649L496 619L374
704L215 619L192 654Z" />
<glyph unicode="&#xe3;" glyph-name="atilde" horiz-adv-x="587" d="M459 71Q478 73 495 77T527 87L557 97L542 38Q517 18 481 5T411 -9Q335 -9 335 72Q335 80 335 85T337 99H334Q289 48 246 18T147 -12Q115 -12 91 -1T49 31T23 78T14 139Q14 222 41 295T113 422T214
508T329 540Q366 540 387 531T426 505H432L447 542H547L558 537L459 71ZM202 76Q236 76 273 103T353 176L406 426Q392 446 377 458T330 471Q296 471 263 445T204 375T161 275T145 160Q145 115 156 96T202 76ZM183 656Q210 710 242 740T316 770Q333 770 351 764T387
750T420 736T447 730Q464 730 479 740T512 777L555 752Q528 698 497 671T423 644Q406 644 388 650T353 663T321 676T292 682Q274 682 259 670T226 631L183 656Z" />
<glyph unicode="&#xe4;" glyph-name="adieresis" horiz-adv-x="587" d="M459 71Q478 73 495 77T527 87L557 97L542 38Q517 18 481 5T411 -9Q335 -9 335 72Q335 80 335 85T337 99H334Q289 48 246 18T147 -12Q115 -12 91 -1T49 31T23 78T14 139Q14 222 41 295T113
422T214 508T329 540Q366 540 387 531T426 505H432L447 542H547L558 537L459 71ZM202 76Q236 76 273 103T353 176L406 426Q392 446 377 458T330 471Q296 471 263 445T204 375T161 275T145 160Q145 115 156 96T202 76ZM266 633Q237 633 219 653T200 700Q200 729
221 749T271 769Q301 769 319 749T337 702Q337 673 316 653T266 633ZM475 633Q446 633 428 653T409 700Q409 729 430 749T480 769Q510 769 528 749T546 702Q546 673 525 653T475 633Z" />
<glyph unicode="&#xe5;" glyph-name="aring" horiz-adv-x="587" d="M459 71Q478 73 495 77T527 87L557 97L542 38Q517 18 481 5T411 -9Q335 -9 335 72Q335 80 335 85T337 99H334Q289 48 246 18T147 -12Q115 -12 91 -1T49 31T23 78T14 139Q14 222 41 295T113 422T214
508T329 540Q366 540 387 531T426 505H432L447 542H547L558 537L459 71ZM202 76Q236 76 273 103T353 176L406 426Q392 446 377 458T330 471Q296 471 263 445T204 375T161 275T145 160Q145 115 156 96T202 76ZM373 611Q347 611 324 620T284 646T258 683T248 730Q248
754 257 775T284 813T324 838T373 848Q399 848 421 839T460 813T486 776T496 730Q496 705 487 684T461 646T422 621T373 611ZM373 655Q406 655 425 675T445 730Q445 764 426 784T373 804Q340 804 320 784T300 730Q300 695 320 675T373 655Z" />
<glyph unicode="&#xe6;" glyph-name="ae" horiz-adv-x="767" d="M264 552Q324 552 366 533T425 474H428Q463 508 509 530T614 553Q690 553 732 521T775 434Q775 383 750 349T679 293T571 260T434 242Q433 235 432 220T431 197Q431 162 438 139T459 101T495 82T543
76Q583 76 622 88T704 123L689 59Q675 47 655 35T610 12T555 -5T490 -12Q378 -12 332 69H323Q315 58 301 44T267 16T219 -5T156 -14Q127 -14 100 -6T53 18T20 60T7 119Q7 209 84 252T315 300L326 357Q331 384 330 407T318 448T290 475T241 485Q222 485 206 481T181
471V373H96Q85 384 77 398T68 431Q68 453 81 475T118 514T179 541T264 552ZM305 188Q305 215 308 244Q251 239 217 231T165 210T140 177T134 132Q134 97 151 78T198 58Q236 58 265 78T311 125Q305 153 305 188ZM603 486Q543 486 503 436T442 303Q487 306 525 314T591
336T634 374T650 431Q650 486 603 486Z" />
<glyph unicode="&#xe7;" glyph-name="ccedilla" horiz-adv-x="462" d="M50 -199Q94 -198 122 -194T166 -182T188 -166T194 -146Q194 -131 177 -122T111 -109L135 -3Q78 13 46 60T14 183Q14 261 39 329T107 446T210 524T338 553Q406 553 439 530T473 464Q473 447
465 424T446 388H358V484Q345 488 327 488Q288 488 256 465T199 401T162 308T148 197Q148 131 174 103T254 74Q294 74 327 85T404 121L387 58Q358 33 313 11T200 -12H181L170 -57Q236 -63 263 -85T291 -138Q291 -161 281 -180T244 -213T168 -234T44 -242L50 -199Z"
/>
<glyph unicode="&#xe8;" glyph-name="egrave" horiz-adv-x="481" d="M204 -12Q115 -12 65 39T14 188Q14 261 37 327T102 443T201 523T328 553Q404 553 446 521T489 434Q489 381 464 345T393 285T286 249T149 230Q148 223 148 214T147 197Q147 162 154 139T174
101T209 82T257 76Q297 76 336 88T418 123L403 59Q389 47 369 35T324 12T269 -5T204 -12ZM317 486Q287 486 262 472T216 432T181 370T157 291Q202 294 240 303T305 328T348 370T364 431Q364 486 317 486ZM432 705L481 802L695 664L673 620L432 705Z" />
<glyph unicode="&#xe9;" glyph-name="eacute" horiz-adv-x="481" d="M204 -12Q115 -12 65 39T14 188Q14 261 37 327T102 443T201 523T328 553Q404 553 446 521T489 434Q489 381 464 345T393 285T286 249T149 230Q148 223 148 214T147 197Q147 162 154 139T174
101T209 82T257 76Q297 76 336 88T418 123L403 59Q389 47 369 35T324 12T269 -5T204 -12ZM317 486Q287 486 262 472T216 432T181 370T157 291Q202 294 240 303T305 328T348 370T364 431Q364 486 317 486ZM234 664L458 802L502 703L251 620L234 664Z" />
<glyph unicode="&#xea;" glyph-name="ecircumflex" horiz-adv-x="481" d="M204 -12Q115 -12 65 39T14 188Q14 261 37 327T102 443T201 523T328 553Q404 553 446 521T489 434Q489 381 464 345T393 285T286 249T149 230Q148 223 148 214T147 197Q147 162 154 139T174
101T209 82T257 76Q297 76 336 88T418 123L403 59Q389 47 369 35T324 12T269 -5T204 -12ZM317 486Q287 486 262 472T216 432T181 370T157 291Q202 294 240 303T305 328T348 370T364 431Q364 486 317 486ZM167 654L327 799H389L500 649L471 619L349 704L190 619L167
654Z" />
<glyph unicode="&#xeb;" glyph-name="edieresis" horiz-adv-x="481" d="M204 -12Q115 -12 65 39T14 188Q14 261 37 327T102 443T201 523T328 553Q404 553 446 521T489 434Q489 381 464 345T393 285T286 249T149 230Q148 223 148 214T147 197Q147 162 154 139T174
101T209 82T257 76Q297 76 336 88T418 123L403 59Q389 47 369 35T324 12T269 -5T204 -12ZM317 486Q287 486 262 472T216 432T181 370T157 291Q202 294 240 303T305 328T348 370T364 431Q364 486 317 486ZM241 633Q212 633 194 653T175 700Q175 729 196 749T246
769Q276 769 294 749T312 702Q312 673 291 653T241 633ZM450 633Q421 633 403 653T384 700Q384 729 405 749T455 769Q485 769 503 749T521 702Q521 673 500 653T450 633Z" />
<glyph unicode="&#xec;" glyph-name="igrave" horiz-adv-x="307" d="M173 71Q193 73 211 77T243 87Q260 92 275 97L261 38Q235 18 196 5T117 -9Q86 -9 66 7T46 61Q46 69 47 77T50 96L133 454Q113 451 94 447T60 438Q42 433 26 428L39 487Q53 500 73 512T115 533T159
547T199 553Q226 553 245 540T264 490Q264 481 263 471T259 449L173 71ZM52 705L101 802L315 664L293 620L52 705Z" />
<glyph unicode="&#xed;" glyph-name="iacute" horiz-adv-x="307" d="M173 71Q193 73 211 77T243 87Q260 92 275 97L261 38Q235 18 196 5T117 -9Q86 -9 66 7T46 61Q46 69 47 77T50 96L133 454Q113 451 94 447T60 438Q42 433 26 428L39 487Q53 500 73 512T115 533T159
547T199 553Q226 553 245 540T264 490Q264 481 263 471T259 449L173 71ZM373 664L597 802L641 703L390 620L373 664Z" />
<glyph unicode="&#xee;" glyph-name="icircumflex" horiz-adv-x="307" d="M173 71Q193 73 211 77T243 87Q260 92 275 97L261 38Q235 18 196 5T117 -9Q86 -9 66 7T46 61Q46 69 47 77T50 96L133 454Q113 451 94 447T60 438Q42 433 26 428L39 487Q53 500 73 512T115
533T159 547T199 553Q226 553 245 540T264 490Q264 481 263 471T259 449L173 71ZM299 654L459 799H521L632 649L603 619L481 704L322 619L299 654Z" />
<glyph unicode="&#xef;" glyph-name="idieresis" horiz-adv-x="307" d="M173 71Q193 73 211 77T243 87Q260 92 275 97L261 38Q235 18 196 5T117 -9Q86 -9 66 7T46 61Q46 69 47 77T50 96L133 454Q113 451 94 447T60 438Q42 433 26 428L39 487Q53 500 73 512T115
533T159 547T199 553Q226 553 245 540T264 490Q264 481 263 471T259 449L173 71ZM374 633Q345 633 327 653T308 700Q308 729 329 749T379 769Q409 769 427 749T445 702Q445 673 424 653T374 633ZM583 633Q554 633 536 653T517 700Q517 729 538 749T588 769Q618
769 636 749T654 702Q654 673 633 653T583 633Z" />
<glyph unicode="&#xf0;" glyph-name="eth" horiz-adv-x="543" d="M303 552Q349 552 380 530H385Q374 565 358 594T321 647L168 585L149 636L279 689Q260 706 240 719T197 744L238 800Q311 771 368 726L503 781L522 730L413 685Q467 628 497 555T527 393Q527 307
507 234T449 105T356 19T232 -12Q178 -12 138 5T71 53T31 124T18 209Q18 276 40 338T100 448T190 523T303 552ZM398 388Q398 415 398 432T395 463Q363 484 318 484Q278 484 247 463T194 402T161 309T149 190Q149 122 169 89T239 56Q316 56 357 143T398 388Z" />
<glyph unicode="&#xf1;" glyph-name="ntilde" horiz-adv-x="614" d="M486 71Q505 73 522 77T554 86Q570 90 584 96L569 37Q544 17 507 4T429 -9Q398 -9 379 7T359 60Q359 79 363 96L421 373Q424 386 426 400T426 427T415 447T390 455Q368 455 348 447T309 426T273
396T239 363L162 0H33L130 454Q110 451 92 447T59 438Q42 434 27 429L40 488Q54 501 73 513T113 534T155 548T194 553Q222 553 239 540T257 491Q257 486 256 478T253 460Q251 449 250 438H256Q279 462 301 482T348 519T400 544T460 553Q506 553 533 529T561 451Q561
427 555 399L486 71ZM169 656Q196 710 228 740T302 770Q319 770 337 764T373 750T406 736T433 730Q450 730 465 740T498 777L541 752Q514 698 483 671T409 644Q392 644 374 650T339 663T307 676T278 682Q260 682 245 670T212 631L169 656Z" />
<glyph unicode="&#xf2;" glyph-name="ograve" horiz-adv-x="549" d="M235 -12Q182 -12 142 5T74 51T32 121T18 209Q18 276 39 338T99 448T193 523T316 552Q367 552 407 535T474 489T516 419T530 331Q530 263 510 201T452 92T359 17T235 -12ZM242 56Q279 56 308
77T357 138T387 231T398 350Q398 419 377 451T307 484Q273 484 244 463T194 402T161 309T149 190Q149 119 171 88T242 56ZM428 705L477 802L691 664L669 620L428 705Z" />
<glyph unicode="&#xf3;" glyph-name="oacute" horiz-adv-x="549" d="M235 -12Q182 -12 142 5T74 51T32 121T18 209Q18 276 39 338T99 448T193 523T316 552Q367 552 407 535T474 489T516 419T530 331Q530 263 510 201T452 92T359 17T235 -12ZM242 56Q279 56 308
77T357 138T387 231T398 350Q398 419 377 451T307 484Q273 484 244 463T194 402T161 309T149 190Q149 119 171 88T242 56ZM236 664L460 802L504 703L253 620L236 664Z" />
<glyph unicode="&#xf4;" glyph-name="ocircumflex" horiz-adv-x="549" d="M235 -12Q182 -12 142 5T74 51T32 121T18 209Q18 276 39 338T99 448T193 523T316 552Q367 552 407 535T474 489T516 419T530 331Q530 263 510 201T452 92T359 17T235 -12ZM242 56Q279 56
308 77T357 138T387 231T398 350Q398 419 377 451T307 484Q273 484 244 463T194 402T161 309T149 190Q149 119 171 88T242 56ZM163 654L323 799H385L496 649L467 619L345 704L186 619L163 654Z" />
<glyph unicode="&#xf5;" glyph-name="otilde" horiz-adv-x="549" d="M235 -12Q182 -12 142 5T74 51T32 121T18 209Q18 276 39 338T99 448T193 523T316 552Q367 552 407 535T474 489T516 419T530 331Q530 263 510 201T452 92T359 17T235 -12ZM242 56Q279 56 308
77T357 138T387 231T398 350Q398 419 377 451T307 484Q273 484 244 463T194 402T161 309T149 190Q149 119 171 88T242 56ZM154 656Q181 710 213 740T287 770Q304 770 322 764T358 750T391 736T418 730Q435 730 450 740T483 777L526 752Q499 698 468 671T394 644Q377
644 359 650T324 663T292 676T263 682Q245 682 230 670T197 631L154 656Z" />
<glyph unicode="&#xf6;" glyph-name="odieresis" horiz-adv-x="549" d="M235 -12Q182 -12 142 5T74 51T32 121T18 209Q18 276 39 338T99 448T193 523T316 552Q367 552 407 535T474 489T516 419T530 331Q530 263 510 201T452 92T359 17T235 -12ZM242 56Q279 56
308 77T357 138T387 231T398 350Q398 419 377 451T307 484Q273 484 244 463T194 402T161 309T149 190Q149 119 171 88T242 56ZM237 633Q208 633 190 653T171 700Q171 729 192 749T242 769Q272 769 290 749T308 702Q308 673 287 653T237 633ZM446 633Q417 633 399
653T380 700Q380 729 401 749T451 769Q481 769 499 749T517 702Q517 673 496 653T446 633Z" />
<glyph unicode="&#xf7;" glyph-name="divide" horiz-adv-x="600" d="M57 362H554V287H57V362ZM305 46Q273 46 252 68T230 119Q230 151 251 172T305 194Q337 194 359 173T382 119Q382 105 376 92T360 68T335 52T305 46ZM305 455Q273 455 252 477T230 529Q230 560
251 581T305 603Q337 603 359 582T382 529Q382 499 360 477T305 455Z" />
<glyph unicode="&#xf8;" glyph-name="oslash" horiz-adv-x="549" d="M235 -12Q187 -12 150 1T86 39L14 -34L-29 5L49 84Q18 136 18 209Q18 276 39 338T99 448T193 523T316 552Q361 552 396 539T459 503L528 574L571 535L496 459Q530 403 530 331Q530 263 510 201T452
92T359 17T235 -12ZM242 56Q279 56 309 78T360 140T393 234T405 353V365L153 108Q165 80 187 68T242 56ZM141 178L391 434Q367 484 307 484Q273 484 243 462T190 400T154 305T141 185V178Z" />
<glyph unicode="&#xf9;" glyph-name="ugrave" horiz-adv-x="594" d="M465 71Q484 73 501 77T533 87L563 97L549 38Q523 18 488 5T414 -9Q375 -9 357 12T346 86L347 94H341Q318 71 298 52T257 19T212 -3T156 -11Q106 -11 77 17T47 101Q47 125 53 152L117 454Q98
450 80 446T48 438Q31 434 16 428L29 487Q58 514 101 533T182 553Q213 553 231 540T249 489Q249 470 243 443L184 167Q181 151 180 137T181 111T193 92T221 85Q260 85 290 108T358 169L437 542H566L465 71ZM186 705L235 802L449 664L427 620L186 705Z" />
<glyph unicode="&#xfa;" glyph-name="uacute" horiz-adv-x="594" d="M465 71Q484 73 501 77T533 87L563 97L549 38Q523 18 488 5T414 -9Q375 -9 357 12T346 86L347 94H341Q318 71 298 52T257 19T212 -3T156 -11Q106 -11 77 17T47 101Q47 125 53 152L117 454Q98
450 80 446T48 438Q31 434 16 428L29 487Q58 514 101 533T182 553Q213 553 231 540T249 489Q249 470 243 443L184 167Q181 151 180 137T181 111T193 92T221 85Q260 85 290 108T358 169L437 542H566L465 71ZM251 664L475 802L519 703L268 620L251 664Z" />
<glyph unicode="&#xfb;" glyph-name="ucircumflex" horiz-adv-x="594" d="M465 71Q484 73 501 77T533 87L563 97L549 38Q523 18 488 5T414 -9Q375 -9 357 12T346 86L347 94H341Q318 71 298 52T257 19T212 -3T156 -11Q106 -11 77 17T47 101Q47 125 53 152L117 454Q98
450 80 446T48 438Q31 434 16 428L29 487Q58 514 101 533T182 553Q213 553 231 540T249 489Q249 470 243 443L184 167Q181 151 180 137T181 111T193 92T221 85Q260 85 290 108T358 169L437 542H566L465 71ZM178 654L338 799H400L511 649L482 619L360 704L201 619L178
654Z" />
<glyph unicode="&#xfc;" glyph-name="udieresis" horiz-adv-x="594" d="M465 71Q484 73 501 77T533 87L563 97L549 38Q523 18 488 5T414 -9Q375 -9 357 12T346 86L347 94H341Q318 71 298 52T257 19T212 -3T156 -11Q106 -11 77 17T47 101Q47 125 53 152L117 454Q98
450 80 446T48 438Q31 434 16 428L29 487Q58 514 101 533T182 553Q213 553 231 540T249 489Q249 470 243 443L184 167Q181 151 180 137T181 111T193 92T221 85Q260 85 290 108T358 169L437 542H566L465 71ZM252 633Q223 633 205 653T186 700Q186 729 207 749T257
769Q287 769 305 749T323 702Q323 673 302 653T252 633ZM461 633Q432 633 414 653T395 700Q395 729 416 749T466 769Q496 769 514 749T532 702Q532 673 511 653T461 633Z" />
<glyph unicode="&#xfd;" glyph-name="yacute" horiz-adv-x="550" d="M27 -217Q-5 -217 -28 -205T-64 -182L-51 -119Q-35 -124 -21 -128T15 -132Q37 -132 57 -130T96 -121T135 -100T177 -62Q174 5 168 76T153 216T135 345T116 453Q97 449 80 445T49 437Q33 433
19 428L31 487Q60 512 97 532T170 553Q196 553 215 539T242 479Q251 431 259 363T271 217Q274 175 272 134T265 49H270Q296 93 316 133T352 208Q383 275 404 333T439 453H381L395 526Q407 538 427 546T465 554Q497 554 520 538T543 480Q543 448 528 400T484 291T416
161T328 18Q286 -47 250 -91T178 -164T107 -204T27 -217ZM238 664L462 802L506 703L255 620L238 664Z" />
<glyph unicode="&#xfe;" glyph-name="thorn" horiz-adv-x="574" d="M-79 -171L-6 -157L154 704L83 720L94 771L283 794L297 788L233 457H238Q278 499 319 526T412 553Q474 553 512 507T551 364Q551 292 531 224T473 104T377 20T246 -12Q210 -12 189 -6T153 9L124
-156L204 -171L196 -217H-87L-79 -171ZM247 54Q291 54 323 82T376 155T407 255T417 363Q417 419 398 439T346 460Q326 460 310 455T279 439T251 417T222 391L169 91Q179 77 196 66T247 54Z" />
<glyph unicode="&#xff;" glyph-name="ydieresis" horiz-adv-x="550" d="M27 -217Q-5 -217 -28 -205T-64 -182L-51 -119Q-35 -124 -21 -128T15 -132Q37 -132 57 -130T96 -121T135 -100T177 -62Q174 5 168 76T153 216T135 345T116 453Q97 449 80 445T49 437Q33 433
19 428L31 487Q60 512 97 532T170 553Q196 553 215 539T242 479Q251 431 259 363T271 217Q274 175 272 134T265 49H270Q296 93 316 133T352 208Q383 275 404 333T439 453H381L395 526Q407 538 427 546T465 554Q497 554 520 538T543 480Q543 448 528 400T484 291T416
161T328 18Q286 -47 250 -91T178 -164T107 -204T27 -217ZM239 633Q210 633 192 653T173 700Q173 729 194 749T244 769Q274 769 292 749T310 702Q310 673 289 653T239 633ZM448 633Q419 633 401 653T382 700Q382 729 403 749T453 769Q483 769 501 749T519 702Q519
673 498 653T448 633Z" />
<glyph unicode="&#x100;" glyph-name="Amacron" horiz-adv-x="708" d="M432 213H191L120 72L196 54L188 0H-49L-40 54L28 72L374 721H498L598 72L658 54L649 0H358L367 54L450 72L432 213ZM225 279H423L404 434Q400 463 398 494T393 553Q390 585 389 615H384Q373
587 361 558Q350 533 337 503T308 442L225 279ZM305 876H610L597 801H292L305 876Z" />
<glyph unicode="&#x101;" glyph-name="amacron" horiz-adv-x="587" d="M459 71Q478 73 495 77T527 87L557 97L542 38Q517 18 481 5T411 -9Q335 -9 335 72Q335 80 335 85T337 99H334Q289 48 246 18T147 -12Q115 -12 91 -1T49 31T23 78T14 139Q14 222 41 295T113
422T214 508T329 540Q366 540 387 531T426 505H432L447 542H547L558 537L459 71ZM202 76Q236 76 273 103T353 176L406 426Q392 446 377 458T330 471Q296 471 263 445T204 375T161 275T145 160Q145 115 156 96T202 76ZM227 726H532L519 651H214L227 726Z" />
<glyph unicode="&#x102;" glyph-name="Abreve" horiz-adv-x="708" d="M432 213H191L120 72L196 54L188 0H-49L-40 54L28 72L374 721H498L598 72L658 54L649 0H358L367 54L450 72L432 213ZM225 279H423L404 434Q400 463 398 494T393 553Q390 585 389 615H384Q373
587 361 558Q350 533 337 503T308 442L225 279ZM441 785Q409 785 384 796T339 828T310 874T300 930H365Q370 904 389 887T445 869Q480 869 504 883T539 930H606Q595 861 552 823T441 785Z" />
<glyph unicode="&#x103;" glyph-name="abreve" horiz-adv-x="587" d="M459 71Q478 73 495 77T527 87L557 97L542 38Q517 18 481 5T411 -9Q335 -9 335 72Q335 80 335 85T337 99H334Q289 48 246 18T147 -12Q115 -12 91 -1T49 31T23 78T14 139Q14 222 41 295T113
422T214 508T329 540Q366 540 387 531T426 505H432L447 542H547L558 537L459 71ZM202 76Q236 76 273 103T353 176L406 426Q392 446 377 458T330 471Q296 471 263 445T204 375T161 275T145 160Q145 115 156 96T202 76ZM357 630Q325 630 300 641T257 673T230 721T220
782H285Q290 752 307 733T361 714Q396 714 418 730T452 782H519Q507 713 466 672T357 630Z" />
<glyph unicode="&#x104;" glyph-name="Aogonek" horiz-adv-x="708" d="M432 213H191L120 72L196 54L188 0H-49L-40 54L28 72L374 721H498L598 72L658 54L649 0H575Q537 0 511 -12T468 -43T443 -81T435 -117Q435 -161 479 -161Q496 -161 506 -158T527 -151L518
-202Q504 -211 485 -216T438 -222Q382 -222 353 -198T324 -138Q324 -112 335 -89T366 -48T409 -14T458 11L432 213ZM225 279H424L404 434Q400 463 398 494T393 553Q390 585 389 615H384Q373 587 361 558Q350 533 337 503T308 442L225 279Z" />
<glyph unicode="&#x105;" glyph-name="aogonek" horiz-adv-x="587" d="M401 -222Q345 -222 316 -198T287 -138Q287 -116 297 -97T323 -62T361 -32T404 -9Q335 -4 335 72Q335 80 335 85T337 99H334Q289 48 246 18T147 -12Q115 -12 91 -1T49 31T23 78T14 139Q14
222 41 295T113 422T214 508T329 540Q366 540 387 531T426 505H432L447 542H547L558 537L459 71Q478 73 495 77T527 87L557 97L542 38Q522 25 497 8T450 -29T413 -73T398 -123Q398 -140 408 -150T442 -161Q459 -161 469 -158T490 -151L481 -202Q467 -211 448 -216T401
-222ZM202 76Q236 76 273 103T353 176L406 426Q392 446 377 458T330 471Q296 471 263 445T204 375T161 275T145 160Q145 115 156 96T202 76Z" />
<glyph unicode="&#x106;" glyph-name="Cacute" horiz-adv-x="647" d="M343 -12Q273 -12 217 6T120 60T59 151T37 281Q37 383 68 466T153 609T280 701T440 733Q515 733 563 721T646 693L630 515H554L527 632Q510 642 488 650T429 658Q365 658 318 625T241 537T195
408T180 256Q180 163 217 114T339 64Q373 64 397 69T440 84L505 214H583L543 25Q505 11 454 0T343 -12ZM318 814L544 952L586 855L335 770L318 814Z" />
<glyph unicode="&#x107;" glyph-name="cacute" horiz-adv-x="462" d="M200 -12Q115 -12 65 38T14 183Q14 261 39 329T107 446T210 524T338 553Q406 553 439 530T473 464Q473 447 465 424T446 388H358V484Q345 488 327 488Q288 488 256 465T199 401T162 308T148
197Q148 131 174 103T254 74Q294 74 327 85T404 121L387 58Q358 33 313 11T200 -12ZM234 664L458 802L502 703L251 620L234 664Z" />
<glyph unicode="&#x108;" glyph-name="Ccircumflex" horiz-adv-x="647" d="M343 -12Q273 -12 217 6T120 60T59 151T37 281Q37 383 68 466T153 609T280 701T440 733Q515 733 563 721T646 693L630 515H554L527 632Q510 642 488 650T429 658Q365 658 318 625T241
537T195 408T180 256Q180 163 217 114T339 64Q373 64 397 69T440 84L505 214H583L543 25Q505 11 454 0T343 -12ZM261 804L416 936H478L594 799L565 769L442 841L284 769L261 804Z" />
<glyph unicode="&#x109;" glyph-name="ccircumflex" horiz-adv-x="462" d="M200 -12Q115 -12 65 38T14 183Q14 261 39 329T107 446T210 524T338 553Q406 553 439 530T473 464Q473 447 465 424T446 388H358V484Q345 488 327 488Q288 488 256 465T199 401T162 308T148
197Q148 131 174 103T254 74Q294 74 327 85T404 121L387 58Q358 33 313 11T200 -12ZM161 654L321 799H383L494 649L465 619L343 704L184 619L161 654Z" />
<glyph unicode="&#x10a;" glyph-name="Cdotaccent" horiz-adv-x="647" d="M343 -12Q273 -12 217 6T120 60T59 151T37 281Q37 383 68 466T153 609T280 701T440 733Q515 733 563 721T646 693L630 515H554L527 632Q510 642 488 650T429 658Q365 658 318 625T241 537T195
408T180 256Q180 163 217 114T339 64Q373 64 397 69T440 84L505 214H583L543 25Q505 11 454 0T343 -12ZM443 781Q411 781 390 801T369 853Q369 884 390 904T443 925Q475 925 496 905T517 853Q517 822 496 802T443 781Z" />
<glyph unicode="&#x10b;" glyph-name="cdotaccent" horiz-adv-x="462" d="M200 -12Q115 -12 65 38T14 183Q14 261 39 329T107 446T210 524T338 553Q406 553 439 530T473 464Q473 447 465 424T446 388H358V484Q345 488 327 488Q288 488 256 465T199 401T162 308T148
197Q148 131 174 103T254 74Q294 74 327 85T404 121L387 58Q358 33 313 11T200 -12ZM321 631Q289 631 268 651T247 703Q247 734 268 754T321 775Q353 775 374 755T395 703Q395 672 374 652T321 631Z" />
<glyph unicode="&#x10c;" glyph-name="Ccaron" horiz-adv-x="647" d="M343 -12Q273 -12 217 6T120 60T59 151T37 281Q37 383 68 466T153 609T280 701T440 733Q515 733 563 721T646 693L630 515H554L527 632Q510 642 488 650T429 658Q365 658 318 625T241 537T195
408T180 256Q180 163 217 114T339 64Q373 64 397 69T440 84L505 214H583L543 25Q505 11 454 0T343 -12ZM611 913L456 781H394L278 918L307 948L430 876L588 948L611 913Z" />
<glyph unicode="&#x10d;" glyph-name="ccaron" horiz-adv-x="462" d="M200 -12Q115 -12 65 38T14 183Q14 261 39 329T107 446T210 524T338 553Q406 553 439 530T473 464Q473 447 465 424T446 388H358V484Q345 488 327 488Q288 488 256 465T199 401T162 308T148
197Q148 131 174 103T254 74Q294 74 327 85T404 121L387 58Q358 33 313 11T200 -12ZM514 765L354 620H292L181 770L210 800L332 715L491 800L514 765Z" />
<glyph unicode="&#x10e;" glyph-name="Dcaron" horiz-adv-x="727" d="M-14 54L76 73L177 648L96 667L105 721H403Q556 721 634 649T712 439Q712 336 683 255T600 117T472 30T308 0H-23L-14 54ZM311 71Q437 71 503 174T569 472Q569 524 557 558T522 612T464 641T386
650H319L216 71H311ZM595 913L440 781H378L262 918L291 948L414 876L572 948L595 913Z" />
<glyph unicode="&#x10f;" glyph-name="dcaron" horiz-adv-x="605" d="M478 71Q497 73 514 77T546 87L576 97L561 38Q536 18 503 5T435 -9Q393 -9 372 14T353 82H349Q334 65 315 48T274 18T225 -4T169 -12Q102 -12 60 31T17 152Q17 232 43 305T114 433T215 520T334
553Q375 553 394 547T431 530L464 708L387 724L396 775L594 799L607 793L478 71ZM223 75Q263 75 296 96T363 152L416 444Q402 461 385 472T338 484Q301 484 267 459T207 392T165 292T149 170Q149 75 223 75ZM620 595Q634 635 648 689T670 791H786Q769 731 744 683T686
595H620Z" />
<glyph unicode="&#x110;" glyph-name="Dcroat" horiz-adv-x="727" d="M-14 54L76 73L120 327H43L56 402H133L177 648L96 667L105 721H403Q556 721 634 649T712 439Q712 336 683 255T600 117T472 30T308 0H-23L-14 54ZM311 71Q437 71 503 174T569 472Q569 524 557
558T522 612T464 641T386 650H319L275 402H434L421 327H261L216 71H311Z" />
<glyph unicode="&#x111;" glyph-name="dcroat" horiz-adv-x="605" d="M587 683H674L663 630H578L478 71Q497 73 514 77T546 87L576 97L561 38Q536 18 503 5T435 -9Q393 -9 372 14T353 82H349Q334 65 315 48T274 18T225 -4T169 -12Q102 -12 60 31T17 152Q17 232
43 305T114 433T215 520T334 553Q375 553 394 547T431 530L449 630H284L295 683H459L478 785L594 799L607 793L587 683ZM223 75Q263 75 296 96T363 152L416 444Q402 461 385 472T338 484Q301 484 267 459T207 392T165 292T149 170Q149 75 223 75Z" />
<glyph unicode="&#x112;" glyph-name="Emacron" horiz-adv-x="639" d="M-14 54L76 73L177 648L96 667L105 721H640L628 532H562L534 651H316L272 403H384L421 494H483L446 244H385L375 338H260L213 69H456L529 215H599L553 0H-23L-14 54ZM263 876H568L555 801H250L263
876Z" />
<glyph unicode="&#x113;" glyph-name="emacron" horiz-adv-x="481" d="M204 -12Q115 -12 65 39T14 188Q14 261 37 327T102 443T201 523T328 553Q404 553 446 521T489 434Q489 381 464 345T393 285T286 249T149 230Q148 223 148 214T147 197Q147 162 154 139T174
101T209 82T257 76Q297 76 336 88T418 123L403 59Q389 47 369 35T324 12T269 -5T204 -12ZM317 486Q287 486 262 472T216 432T181 370T157 291Q202 294 240 303T305 328T348 370T364 431Q364 486 317 486ZM202 726H507L494 651H189L202 726Z" />
<glyph unicode="&#x114;" glyph-name="Ebreve" horiz-adv-x="639" d="M-14 54L76 73L177 648L96 667L105 721H640L628 532H562L534 651H316L272 403H384L421 494H483L446 244H385L375 338H260L213 69H456L529 215H599L553 0H-23L-14 54ZM400 785Q368 785 343 796T298
828T269 874T259 930H324Q329 904 348 887T404 869Q439 869 463 883T498 930H565Q554 861 511 823T400 785Z" />
<glyph unicode="&#x115;" glyph-name="ebreve" horiz-adv-x="481" d="M204 -12Q115 -12 65 39T14 188Q14 261 37 327T102 443T201 523T328 553Q404 553 446 521T489 434Q489 381 464 345T393 285T286 249T149 230Q148 223 148 214T147 197Q147 162 154 139T174
101T209 82T257 76Q297 76 336 88T418 123L403 59Q389 47 369 35T324 12T269 -5T204 -12ZM317 486Q287 486 262 472T216 432T181 370T157 291Q202 294 240 303T305 328T348 370T364 431Q364 486 317 486ZM325 630Q293 630 268 641T225 673T198 721T188 782H253Q258
752 275 733T329 714Q364 714 386 730T420 782H487Q475 713 434 672T325 630Z" />
<glyph unicode="&#x116;" glyph-name="Edotaccent" horiz-adv-x="639" d="M-14 54L76 73L177 648L96 667L105 721H640L628 532H562L534 651H316L272 403H384L421 494H483L446 244H385L375 338H260L213 69H456L529 215H599L553 0H-23L-14 54ZM412 781Q380 781 359
801T338 853Q338 884 359 904T412 925Q444 925 465 905T486 853Q486 822 465 802T412 781Z" />
<glyph unicode="&#x117;" glyph-name="edotaccent" horiz-adv-x="481" d="M204 -12Q115 -12 65 39T14 188Q14 261 37 327T102 443T201 523T328 553Q404 553 446 521T489 434Q489 381 464 345T393 285T286 249T149 230Q148 223 148 214T147 197Q147 162 154 139T174
101T209 82T257 76Q297 76 336 88T418 123L403 59Q389 47 369 35T324 12T269 -5T204 -12ZM317 486Q287 486 262 472T216 432T181 370T157 291Q202 294 240 303T305 328T348 370T364 431Q364 486 317 486ZM327 631Q295 631 274 651T253 703Q253 734 274 754T327
775Q359 775 380 755T401 703Q401 672 380 652T327 631Z" />
<glyph unicode="&#x118;" glyph-name="Eogonek" horiz-adv-x="639" d="M-14 54L76 73L177 648L96 667L105 721H640L628 532H562L534 651H316L272 403H384L421 494H483L446 244H385L375 338H260L213 69H456L529 215H599L553 0H480Q438 -30 417 -63T395 -123Q395
-140 405 -150T439 -161Q456 -161 466 -158T487 -151L478 -202Q464 -211 445 -216T398 -222Q342 -222 313 -198T284 -138Q284 -116 294 -96T322 -57T360 -25T404 0H-23L-14 54Z" />
<glyph unicode="&#x119;" glyph-name="eogonek" horiz-adv-x="481" d="M229 -222Q173 -222 144 -198T115 -138Q115 -117 126 -98T154 -63T194 -33T239 -10Q231 -11 222 -11T204 -12Q115 -12 65 39T14 188Q14 261 37 327T102 443T201 523T328 553Q404 553 446 521T489
434Q489 381 464 345T393 285T286 249T149 230Q148 223 148 214T147 197Q147 162 154 139T174 101T209 82T257 76Q297 76 336 88T418 123L403 59Q383 42 353 24T294 -17T246 -66T226 -123Q226 -140 236 -150T270 -161Q287 -161 297 -158T318 -151L309 -202Q295
-211 276 -216T229 -222ZM317 486Q287 486 262 472T216 432T181 370T157 291Q202 294 240 303T305 328T348 370T364 431Q364 486 317 486Z" />
<glyph unicode="&#x11a;" glyph-name="Ecaron" horiz-adv-x="639" d="M-14 54L76 73L177 648L96 667L105 721H640L628 532H562L534 651H316L272 403H384L421 494H483L446 244H385L375 338H260L213 69H456L529 215H599L553 0H-23L-14 54ZM584 913L429 781H367L251
918L280 948L403 876L561 948L584 913Z" />
<glyph unicode="&#x11b;" glyph-name="ecaron" horiz-adv-x="481" d="M204 -12Q115 -12 65 39T14 188Q14 261 37 327T102 443T201 523T328 553Q404 553 446 521T489 434Q489 381 464 345T393 285T286 249T149 230Q148 223 148 214T147 197Q147 162 154 139T174
101T209 82T257 76Q297 76 336 88T418 123L403 59Q389 47 369 35T324 12T269 -5T204 -12ZM317 486Q287 486 262 472T216 432T181 370T157 291Q202 294 240 303T305 328T348 370T364 431Q364 486 317 486ZM511 765L351 620H289L178 770L207 800L329 715L488 800L511
765Z" />
<glyph unicode="&#x11c;" glyph-name="Gcircumflex" horiz-adv-x="714" d="M356 -14Q273 -14 213 7T114 66T57 159T38 280Q38 388 74 472T168 614T301 702T452 733Q536 733 588 723T672 700L660 519H588L559 634Q539 648 513 653T447 658Q385 658 336 629T252
547T198 420T179 255Q179 163 220 113T357 62Q378 62 405 67T451 80L483 262L402 280L411 334H701L692 280L619 262L577 25Q555 17 528 10T471 -3T412 -11T356 -14ZM290 804L445 936H507L623 799L594 769L471 841L313 769L290 804Z" />
<glyph unicode="&#x11d;" glyph-name="gcircumflex" horiz-adv-x="497" d="M174 -223Q106 -223 59 -213T-20 -186T-65 -145T-79 -93Q-79 -66 -63 -44T-22 -5T37 26T103 49Q83 63 74 80T64 117Q64 146 80 175T122 228Q87 248 65 279T43 354Q43 400 61 437T109 499T181
538T268 552Q291 552 314 548T357 532L532 556L516 471L415 484V481Q435 462 446 438T457 387Q457 346 440 312T393 253T322 213T232 199Q217 199 198 201T165 208Q150 185 150 166Q150 151 163 142T216 120L280 100Q316 89 345 76T395 44T427 3T439 -50Q439 -88
423 -120T375 -175T292 -210T174 -223ZM227 -2Q187 11 169 17T148 25Q125 17 105 7T68 -17T43 -47T33 -83Q33 -100 40 -114T63 -138T105 -153T172 -158Q250 -158 288 -138T327 -82Q327 -53 301 -35T227 -2ZM234 260Q285 260 311 299T337 406Q337 445 320 468T267
491Q218 491 191 450T164 340Q164 304 181 282T234 260ZM393 654L553 799H615L726 649L697 619L575 704L416 619L393 654Z" />
<glyph unicode="&#x11e;" glyph-name="Gbreve" horiz-adv-x="714" d="M356 -14Q273 -14 213 7T114 66T57 159T38 280Q38 388 74 472T168 614T301 702T452 733Q536 733 588 723T672 700L660 519H588L559 634Q539 648 513 653T447 658Q385 658 336 629T252 547T198
420T179 255Q179 163 220 113T357 62Q378 62 405 67T451 80L483 262L402 280L411 334H701L692 280L619 262L577 25Q555 17 528 10T471 -3T412 -11T356 -14ZM452 785Q420 785 395 796T350 828T321 874T311 930H376Q381 904 400 887T456 869Q491 869 515 883T550
930H617Q606 861 563 823T452 785Z" />
<glyph unicode="&#x11f;" glyph-name="gbreve" horiz-adv-x="497" d="M174 -223Q106 -223 59 -213T-20 -186T-65 -145T-79 -93Q-79 -66 -63 -44T-22 -5T37 26T103 49Q83 63 74 80T64 117Q64 146 80 175T122 228Q87 248 65 279T43 354Q43 400 61 437T109 499T181
538T268 552Q291 552 314 548T357 532L532 556L516 471L415 484V481Q435 462 446 438T457 387Q457 346 440 312T393 253T322 213T232 199Q217 199 198 201T165 208Q150 185 150 166Q150 151 163 142T216 120L280 100Q316 89 345 76T395 44T427 3T439 -50Q439 -88
423 -120T375 -175T292 -210T174 -223ZM227 -2Q187 11 169 17T148 25Q125 17 105 7T68 -17T43 -47T33 -83Q33 -100 40 -114T63 -138T105 -153T172 -158Q250 -158 288 -138T327 -82Q327 -53 301 -35T227 -2ZM234 260Q285 260 311 299T337 406Q337 445 320 468T267
491Q218 491 191 450T164 340Q164 304 181 282T234 260ZM300 630Q268 630 243 641T200 673T173 721T163 782H228Q233 752 250 733T304 714Q339 714 361 730T395 782H462Q450 713 409 672T300 630Z" />
<glyph unicode="&#x120;" glyph-name="Gdotaccent" horiz-adv-x="714" d="M356 -14Q273 -14 213 7T114 66T57 159T38 280Q38 388 74 472T168 614T301 702T452 733Q536 733 588 723T672 700L660 519H588L559 634Q539 648 513 653T447 658Q385 658 336 629T252 547T198
420T179 255Q179 163 220 113T357 62Q378 62 405 67T451 80L483 262L402 280L411 334H701L692 280L619 262L577 25Q555 17 528 10T471 -3T412 -11T356 -14ZM463 781Q431 781 410 801T389 853Q389 884 410 904T463 925Q495 925 516 905T537 853Q537 822 516 802T463
781Z" />
<glyph unicode="&#x121;" glyph-name="gdotaccent" horiz-adv-x="497" d="M174 -223Q106 -223 59 -213T-20 -186T-65 -145T-79 -93Q-79 -66 -63 -44T-22 -5T37 26T103 49Q83 63 74 80T64 117Q64 146 80 175T122 228Q87 248 65 279T43 354Q43 400 61 437T109 499T181
538T268 552Q291 552 314 548T357 532L532 556L516 471L415 484V481Q435 462 446 438T457 387Q457 346 440 312T393 253T322 213T232 199Q217 199 198 201T165 208Q150 185 150 166Q150 151 163 142T216 120L280 100Q316 89 345 76T395 44T427 3T439 -50Q439 -88
423 -120T375 -175T292 -210T174 -223ZM227 -2Q187 11 169 17T148 25Q125 17 105 7T68 -17T43 -47T33 -83Q33 -100 40 -114T63 -138T105 -153T172 -158Q250 -158 288 -138T327 -82Q327 -53 301 -35T227 -2ZM234 260Q285 260 311 299T337 406Q337 445 320 468T267
491Q218 491 191 450T164 340Q164 304 181 282T234 260ZM304 631Q272 631 251 651T230 703Q230 734 251 754T304 775Q336 775 357 755T378 703Q378 672 357 652T304 631Z" />
<glyph unicode="&#x122;" glyph-name="Gcommaaccent" horiz-adv-x="714" d="M356 -14Q273 -14 213 7T114 66T57 159T38 280Q38 388 74 472T168 614T301 702T452 733Q536 733 588 723T672 700L660 519H588L559 634Q539 648 513 653T447 658Q385 658 336 629T252
547T198 420T179 255Q179 163 220 113T357 62Q378 62 405 67T451 80L483 262L402 280L411 334H701L692 280L619 262L577 25Q555 17 528 10T471 -3T412 -11T356 -14ZM210 -240Q244 -234 266 -226T302 -208T322 -187T330 -161Q323 -168 315 -172T292 -176Q269 -176
254 -163T238 -126Q238 -97 259 -80T311 -62Q348 -62 372 -82T396 -144Q396 -197 354 -235T217 -282L210 -240Z" />
<glyph unicode="&#x123;" glyph-name="gcommaaccent" horiz-adv-x="497" d="M174 -223Q106 -223 59 -213T-20 -186T-65 -145T-79 -93Q-79 -66 -63 -44T-22 -5T37 26T103 49Q83 63 74 80T64 117Q64 146 80 175T122 228Q87 248 65 279T43 354Q43 400 61 437T109
499T181 538T268 552Q291 552 314 548T357 532L532 556L516 471L415 484V481Q435 462 446 438T457 387Q457 346 440 312T393 253T322 213T232 199Q217 199 198 201T165 208Q150 185 150 166Q150 151 163 142T216 120L280 100Q316 89 345 76T395 44T427 3T439 -50Q439
-88 423 -120T375 -175T292 -210T174 -223ZM227 -2Q187 11 169 17T148 25Q125 17 105 7T68 -17T43 -47T33 -83Q33 -100 40 -114T63 -138T105 -153T172 -158Q250 -158 288 -138T327 -82Q327 -53 301 -35T227 -2ZM234 260Q285 260 311 299T337 406Q337 445 320 468T267
491Q218 491 191 450T164 340Q164 304 181 282T234 260ZM411 800Q376 794 354 786T318 768T298 746T291 721Q298 728 306 732T329 736Q352 736 367 723T383 686Q383 657 362 640T310 622Q273 622 249 642T225 704Q225 757 267 795T404 842L411 800Z" />
<glyph unicode="&#x124;" glyph-name="Hcircumflex" horiz-adv-x="785" d="M-14 54L73 72L176 648L96 667L105 721H409L400 667L318 648L275 402H552L595 648L517 667L526 721H831L821 667L736 648L633 72L712 54L703 0H399L408 54L492 72L539 336H262L215 72L291
54L282 0H-23L-14 54ZM310 804L465 936H527L643 799L614 769L491 841L333 769L310 804Z" />
<glyph unicode="&#x125;" glyph-name="hcircumflex" horiz-adv-x="614" d="M429 -9Q398 -9 379 7T359 60Q359 79 363 96L421 373Q424 388 426 402T426 428T415 447T390 455Q368 455 347 447T307 426T269 396T235 363L158 0H29L179 707L110 724L119 775L310 799L322
792L251 443H257Q276 463 298 483T345 518T398 543T460 553Q506 553 533 529T561 451Q561 427 555 399L486 71Q505 73 522 77T554 86Q570 90 584 96L569 37Q544 17 507 4T429 -9ZM222 874L377 1006H439L555 869L526 839L403 911L245 839L222 874Z" />
<glyph unicode="&#x126;" glyph-name="Hbar" horiz-adv-x="785" d="M65 557H159L176 648L96 667L105 721H409L400 667L318 648L302 557H579L595 648L517 667L526 721H831L821 667L736 648L719 557H815L805 503H710L633 72L712 54L703 0H399L408 54L492 72L539
336H262L215 72L291 54L282 0H-23L-14 54L73 72L150 503H55L65 557ZM552 402L569 503H292L275 402H552Z" />
<glyph unicode="&#x127;" glyph-name="hbar" horiz-adv-x="614" d="M91 683H173L195 784L310 799L322 792L300 683H458L447 630H289L251 443H257Q276 463 298 483T345 518T398 543T460 553Q506 553 533 529T561 451Q561 427 555 399L486 71Q505 73 522 77T554
86Q570 90 584 96L569 37Q544 17 507 4T429 -9Q398 -9 379 7T359 60Q359 79 363 96L421 373Q424 386 426 400T426 427T415 447T390 455Q368 455 347 447T307 426T269 396T235 363L158 0H29L162 630H80L91 683Z" />
<glyph unicode="&#x128;" glyph-name="Itilde" horiz-adv-x="354" d="M-18 54L67 72L169 648L92 667L101 721H404L395 667L310 648L208 72L286 54L277 0H-27L-18 54ZM334 806Q361 860 393 890T467 920Q484 920 502 914T538 900T571 886T598 880Q615 880 630 890T663
927L706 902Q679 848 648 821T574 794Q557 794 539 800T504 813T472 826T443 832Q425 832 410 820T377 781L334 806Z" />
<glyph unicode="&#x129;" glyph-name="itilde" horiz-adv-x="307" d="M173 71Q193 73 211 77T243 87Q260 92 275 97L261 38Q235 18 196 5T117 -9Q86 -9 66 7T46 61Q46 69 47 77T50 96L133 454Q113 451 94 447T60 438Q42 433 26 428L39 487Q53 500 73 512T115 533T159
547T199 553Q226 553 245 540T264 490Q264 481 263 471T259 449L173 71ZM33 656Q60 710 92 740T166 770Q183 770 201 764T237 750T270 736T297 730Q314 730 329 740T362 777L405 752Q378 698 347 671T273 644Q256 644 238 650T203 663T171 676T142 682Q124 682
109 670T76 631L33 656Z" />
<glyph unicode="&#x12a;" glyph-name="Imacron" horiz-adv-x="354" d="M-18 54L67 72L169 648L92 667L101 721H404L395 667L310 648L208 72L286 54L277 0H-27L-18 54ZM381 876H686L673 801H368L381 876Z" />
<glyph unicode="&#x12b;" glyph-name="imacron" horiz-adv-x="307" d="M98 726H351L336 651H83L98 726ZM173 71Q193 73 211 77T243 87Q260 92 275 97L261 38Q235 18 196 5T117 -9Q86 -9 66 7T46 61Q46 69 47 77T50 96L133 454Q113 451 94 447T60 438Q42 433 26
428L39 487Q53 500 73 512T115 533T159 547T199 553Q226 553 245 540T264 490Q264 481 263 471T259 449L173 71Z" />
<glyph unicode="&#x12c;" glyph-name="Ibreve" horiz-adv-x="354" d="M-18 54L67 72L169 648L92 667L101 721H404L395 667L310 648L208 72L286 54L277 0H-27L-18 54ZM518 785Q486 785 461 796T416 828T387 874T377 930H442Q447 904 466 887T522 869Q557 869 581
883T616 930H683Q672 861 629 823T518 785Z" />
<glyph unicode="&#x12d;" glyph-name="ibreve" horiz-adv-x="307" d="M173 71Q193 73 211 77T243 87Q260 92 275 97L261 38Q235 18 196 5T117 -9Q86 -9 66 7T46 61Q46 69 47 77T50 96L133 454Q113 451 94 447T60 438Q42 433 26 428L39 487Q53 500 73 512T115 533T159
547T199 553Q226 553 245 540T264 490Q264 481 263 471T259 449L173 71ZM458 630Q426 630 401 641T358 673T331 721T321 782H386Q391 752 408 733T462 714Q497 714 519 730T553 782H620Q608 713 567 672T458 630Z" />
<glyph unicode="&#x12e;" glyph-name="Iogonek" horiz-adv-x="354" d="M-18 54L67 72L169 648L92 667L101 721H404L395 667L310 648L208 72L286 54L277 0H174Q144 -30 124 -63T103 -123Q103 -140 113 -150T147 -161Q164 -161 174 -158T195 -151L186 -202Q172 -211
153 -216T106 -222Q50 -222 21 -197T-8 -136Q-8 -112 2 -92T30 -54T67 -23T109 0H-27L-18 54Z" />
<glyph unicode="&#x12f;" glyph-name="iogonek" horiz-adv-x="307" d="M115 -222Q59 -222 30 -198T1 -138Q1 -116 11 -96T39 -60T78 -31T123 -9H117Q86 -9 66 7T46 61Q46 69 47 77T50 96L133 454Q113 451 94 447T60 438Q42 433 26 428L39 487Q53 500 73 512T115
533T159 547T199 553Q226 553 245 540T264 490Q264 481 263 471T259 449L173 71Q193 73 211 77T243 87Q260 92 275 97L261 38Q229 18 202 -2T155 -41T124 -81T112 -123Q112 -140 122 -150T156 -161Q173 -161 183 -158T204 -151L195 -202Q181 -211 162 -216T115
-222ZM226 631Q194 631 173 651T152 703Q152 734 173 754T226 775Q258 775 279 755T300 703Q300 672 279 652T226 631Z" />
<glyph unicode="&#x130;" glyph-name="Idotaccent" horiz-adv-x="354" d="M-18 54L67 72L169 648L92 667L101 721H404L395 667L310 648L208 72L286 54L277 0H-27L-18 54ZM519 781Q487 781 466 801T445 853Q445 884 466 904T519 925Q551 925 572 905T593 853Q593
822 572 802T519 781Z" />
<glyph unicode="&#x131;" glyph-name="dotlessi" horiz-adv-x="307" d="M173 71Q193 73 211 77T243 87Q260 92 275 97L261 38Q235 18 196 5T117 -9Q86 -9 66 7T46 61Q46 69 47 77T50 96L133 454Q113 451 94 447T60 438Q42 433 26 428L39 487Q53 500 73 512T115
533T159 547T199 553Q226 553 245 540T264 490Q264 481 263 471T259 449L173 71Z" />
<glyph unicode="&#x132;" glyph-name="IJ" horiz-adv-x="811" d="M-18 54L67 72L169 648L92 667L101 721H404L395 667L310 648L208 72L286 54L277 0H-27L-18 54ZM470 -9Q431 -9 404 -1T358 22T332 55T324 91Q324 109 331 123T350 149H437V63Q442 62 447 62T458
62Q498 62 521 90T558 190L638 648L558 667L567 721H865L856 667L780 648L697 178Q680 83 619 37T470 -9Z" />
<glyph unicode="&#x133;" glyph-name="ij" horiz-adv-x="599" d="M173 71Q193 73 211 77T243 87Q260 92 275 97L261 38Q235 18 196 5T117 -9Q86 -9 66 7T46 61Q46 69 47 77T50 96L133 454Q113 451 94 447T60 438Q42 433 26 428L39 487Q53 500 73 512T115 533T159
547T199 553Q226 553 245 540T264 490Q264 481 263 471T259 449L173 71ZM226 631Q194 631 173 651T152 703Q152 734 173 754T226 775Q258 775 279 755T300 703Q300 672 279 652T226 631ZM259 -215Q202 -215 170 -191T137 -132Q137 -104 159 -80H242V-153H247Q265
-153 279 -150T304 -135T323 -105T339 -53L444 454Q424 451 405 447T371 438Q353 433 338 428L351 487Q365 500 384 512T425 533T468 547T508 553Q535 553 554 540T573 490Q573 481 572 471T568 449L469 -26Q458 -77 438 -113T391 -171T331 -204T259 -215ZM541
631Q509 631 488 651T467 703Q467 734 488 754T541 775Q573 775 594 755T615 703Q615 672 594 652T541 631Z" />
<glyph unicode="&#x134;" glyph-name="Jcircumflex" horiz-adv-x="477" d="M132 -9Q93 -9 66 -1T20 22T-6 55T-14 91Q-14 109 -7 123T12 149H99V63Q104 62 109 62T120 62Q162 62 186 90T224 190L304 648L224 667L233 721H531L522 667L446 648L363 178Q355 131
334 96T283 37T214 3T132 -9ZM224 804L379 936H441L557 799L528 769L405 841L247 769L224 804Z" />
<glyph unicode="&#x135;" glyph-name="jcircumflex" horiz-adv-x="292" d="M-48 -215Q-105 -215 -137 -191T-170 -132Q-170 -104 -148 -80H-65V-153H-60Q-42 -153 -28 -150T-3 -135T16 -105T32 -53L137 454Q117 451 98 447T64 438Q46 433 31 428L44 487Q58 500
77 512T118 533T161 547T201 553Q228 553 247 540T266 490Q266 481 265 471T261 449L162 -26Q151 -77 131 -113T84 -171T24 -204T-48 -215ZM293 654L453 799H515L626 649L597 619L475 704L316 619L293 654Z" />
<glyph unicode="&#x136;" glyph-name="Kcommaaccent" horiz-adv-x="713" d="M-14 54L74 72L176 648L96 667L105 721H412L403 667L318 649L262 341L577 648L509 667L518 721H760L751 667L687 649L440 415L595 73L663 54L654 0H480L335 323L249 261L215 72L293 54L284
0H-23L-14 54ZM215 -240Q249 -234 271 -226T307 -208T327 -187T335 -161Q328 -168 320 -172T297 -176Q274 -176 259 -163T243 -126Q243 -97 264 -80T316 -62Q353 -62 377 -82T401 -144Q401 -197 359 -235T222 -282L215 -240Z" />
<glyph unicode="&#x137;" glyph-name="kcommaaccent" horiz-adv-x="557" d="M179 707L110 724L119 775L310 799L322 792L224 309L247 312Q270 315 287 323T319 348T348 391T379 457Q403 514 431 533T495 553Q521 553 540 539T565 513L552 453H469Q458 432 446
409T418 366T384 330T345 304L430 70Q447 72 464 76T494 85Q509 90 523 96L509 38Q483 18 459 5T402 -9Q372 -9 352 6T316 52T284 134T248 253H211L158 0H29L179 707ZM388 -240Q422 -234 444 -226T480 -208T500 -187T508 -161Q501 -168 493 -172T470 -176Q447 -176
432 -163T416 -126Q416 -97 437 -80T489 -62Q526 -62 550 -82T574 -144Q574 -197 532 -235T395 -282L388 -240Z" />
<glyph unicode="&#x139;" glyph-name="Lacute" horiz-adv-x="606" d="M-14 54L74 72L176 648L95 667L104 721H421L412 667L318 649L215 71H424L500 243H571L522 0H-23L-14 54ZM396 814L622 952L664 855L413 770L396 814Z" />
<glyph unicode="&#x13a;" glyph-name="lacute" horiz-adv-x="307" d="M165 71Q185 73 204 78T238 88Q256 93 271 99L257 40Q231 20 191 6T108 -9Q77 -9 58 7T38 62Q38 79 42 96L171 707L102 724L111 775L301 799L313 792L165 71ZM393 884L619 1022L661 925L410
840L393 884Z" />
<glyph unicode="&#x13b;" glyph-name="Lcommaaccent" horiz-adv-x="606" d="M-14 54L74 72L176 648L95 667L104 721H421L412 667L318 649L215 71H424L500 243H571L522 0H-23L-14 54ZM184 -240Q218 -234 240 -226T276 -208T296 -187T304 -161Q297 -168 289 -172T266
-176Q243 -176 228 -163T212 -126Q212 -97 233 -80T285 -62Q322 -62 346 -82T370 -144Q370 -197 328 -235T191 -282L184 -240Z" />
<glyph unicode="&#x13c;" glyph-name="lcommaaccent" horiz-adv-x="307" d="M165 71Q185 73 204 78T238 88Q256 93 271 99L257 40Q231 20 191 6T108 -9Q77 -9 58 7T38 62Q38 79 42 96L171 707L102 724L111 775L301 799L313 792L165 71ZM0 -240Q34 -234 56 -226T92
-208T112 -187T120 -161Q113 -168 105 -172T82 -176Q59 -176 44 -163T28 -126Q28 -97 49 -80T101 -62Q138 -62 162 -82T186 -144Q186 -197 144 -235T7 -282L0 -240Z" />
<glyph unicode="&#x13d;" glyph-name="Lcaron" horiz-adv-x="606" d="M-14 54L74 72L176 648L95 667L104 721H421L412 667L318 649L215 71H424L500 243H571L522 0H-23L-14 54ZM472 546Q486 586 500 640T522 742H638Q621 682 596 634T538 546H472Z" />
<glyph unicode="&#x13e;" glyph-name="lcaron" horiz-adv-x="307" d="M165 71Q185 73 204 78T238 88Q256 93 271 99L257 40Q231 20 191 6T108 -9Q77 -9 58 7T38 62Q38 79 42 96L171 707L102 724L111 775L301 799L313 792L165 71ZM328 595Q342 635 356 689T378
791H494Q477 731 452 683T394 595H328Z" />
<glyph unicode="&#x13f;" glyph-name="Ldot" horiz-adv-x="606" d="M527 326Q491 326 466 350T441 410Q441 446 466 470T527 494Q563 494 588 470T613 410Q613 374 588 350T527 326ZM-14 54L74 72L176 648L95 667L104 721H421L412 667L318 649L215 71H424L495
217H566L522 0H-23L-14 54Z" />
<glyph unicode="&#x140;" glyph-name="ldot" horiz-adv-x="454" d="M388 306Q356 306 336 327T316 376Q316 410 338 431T393 453Q425 453 445 432T465 382Q465 349 443 328T388 306ZM165 71Q185 73 204 78T238 88Q256 93 271 99L257 40Q231 20 191 6T108 -9Q77
-9 58 7T38 62Q38 79 42 96L171 707L102 724L111 775L301 799L313 792L165 71Z" />
<glyph unicode="&#x141;" glyph-name="Lslash" horiz-adv-x="606" d="M-14 54L74 72L107 260L18 228L31 303L121 335L176 648L95 667L104 721H421L412 667L318 649L272 390L484 468L471 392L258 315L215 71H424L500 243H571L522 0H-23L-14 54Z" />
<glyph unicode="&#x142;" glyph-name="lslash" horiz-adv-x="317" d="M255 487L351 536L338 462L240 412L170 71Q190 73 209 78T243 88Q261 93 276 99L262 40Q236 20 196 6T113 -9Q82 -9 63 7T43 62Q43 79 47 96L98 341L16 299L28 372L114 416L176 707L107 724L116
775L306 799L318 792L255 487Z" />
<glyph unicode="&#x143;" glyph-name="Nacute" horiz-adv-x="761" d="M-14 54L75 73L176 648L96 667L105 721H341L497 366Q509 338 519 307T537 249Q546 217 554 187H559L641 647L561 667L570 721H815L806 667L728 648L606 0H502L316 440Q303 470 293 502T276
560Q268 591 262 620H258L161 73L241 54L232 0H-23L-14 54ZM367 814L593 952L635 855L384 770L367 814Z" />
<glyph unicode="&#x144;" glyph-name="nacute" horiz-adv-x="614" d="M486 71Q505 73 522 77T554 86Q570 90 584 96L569 37Q544 17 507 4T429 -9Q398 -9 379 7T359 60Q359 79 363 96L421 373Q424 386 426 400T426 427T415 447T390 455Q368 455 348 447T309 426T273
396T239 363L162 0H33L130 454Q110 451 92 447T59 438Q42 434 27 429L40 488Q54 501 73 513T113 534T155 548T194 553Q222 553 239 540T257 491Q257 486 256 478T253 460Q251 449 250 438H256Q279 462 301 482T348 519T400 544T460 553Q506 553 533 529T561 451Q561
427 555 399L486 71ZM278 664L502 802L546 703L295 620L278 664Z" />
<glyph unicode="&#x145;" glyph-name="Ncommaaccent" horiz-adv-x="761" d="M-14 54L75 73L176 648L96 667L105 721H341L497 366Q509 338 519 307T537 249Q546 217 554 187H559L641 647L561 667L570 721H815L806 667L728 648L606 0H502L316 440Q303 470 293 502T276
560Q268 591 262 620H258L161 73L241 54L232 0H-23L-14 54ZM252 -240Q286 -234 308 -226T344 -208T364 -187T372 -161Q365 -168 357 -172T334 -176Q311 -176 296 -163T280 -126Q280 -97 301 -80T353 -62Q390 -62 414 -82T438 -144Q438 -197 396 -235T259 -282L252
-240Z" />
<glyph unicode="&#x146;" glyph-name="ncommaaccent" horiz-adv-x="614" d="M486 71Q505 73 522 77T554 86Q570 90 584 96L569 37Q544 17 507 4T429 -9Q398 -9 379 7T359 60Q359 79 363 96L421 373Q424 386 426 400T426 427T415 447T390 455Q368 455 348 447T309
426T273 396T239 363L162 0H33L130 454Q110 451 92 447T59 438Q42 434 27 429L40 488Q54 501 73 513T113 534T155 548T194 553Q222 553 239 540T257 491Q257 486 256 478T253 460Q251 449 250 438H256Q279 462 301 482T348 519T400 544T460 553Q506 553 533 529T561
451Q561 427 555 399L486 71ZM409 -240Q443 -234 465 -226T501 -208T521 -187T529 -161Q522 -168 514 -172T491 -176Q468 -176 453 -163T437 -126Q437 -97 458 -80T510 -62Q547 -62 571 -82T595 -144Q595 -197 553 -235T416 -282L409 -240Z" />
<glyph unicode="&#x147;" glyph-name="Ncaron" horiz-adv-x="761" d="M-14 54L75 73L176 648L96 667L105 721H341L497 366Q509 338 519 307T537 249Q546 217 554 187H559L641 647L561 667L570 721H815L806 667L728 648L606 0H502L316 440Q303 470 293 502T276
560Q268 591 262 620H258L161 73L241 54L232 0H-23L-14 54ZM670 913L515 781H453L337 918L366 948L489 876L647 948L670 913Z" />
<glyph unicode="&#x148;" glyph-name="ncaron" horiz-adv-x="614" d="M486 71Q505 73 522 77T554 86Q570 90 584 96L569 37Q544 17 507 4T429 -9Q398 -9 379 7T359 60Q359 79 363 96L421 373Q424 386 426 400T426 427T415 447T390 455Q368 455 348 447T309 426T273
396T239 363L162 0H33L130 454Q110 451 92 447T59 438Q42 434 27 429L40 488Q54 501 73 513T113 534T155 548T194 553Q222 553 239 540T257 491Q257 486 256 478T253 460Q251 449 250 438H256Q279 462 301 482T348 519T400 544T460 553Q506 553 533 529T561 451Q561
427 555 399L486 71ZM549 765L389 620H327L216 770L245 800L367 715L526 800L549 765Z" />
<glyph unicode="&#x149;" glyph-name="napostrophe" horiz-adv-x="614" d="M486 71Q505 73 522 77T554 86Q570 90 584 96L569 37Q544 17 507 4T429 -9Q398 -9 379 7T359 60Q359 79 363 96L421 373Q424 386 426 400T426 427T415 447T390 455Q368 455 348 447T309
426T273 396T239 363L162 0H33L130 454Q110 451 92 447T59 438Q42 434 27 429L40 488Q54 501 73 513T113 534T155 548T194 553Q222 553 239 540T257 491Q257 486 256 478T253 460Q251 449 250 438H256Q279 462 301 482T348 519T400 544T460 553Q506 553 533 529T561
451Q561 427 555 399L486 71ZM-50 733Q-13 733 11 708T36 641Q36 612 26 580T-9 519T-74 465T-175 425L-188 467Q-46 525 -37 612Q-43 606 -53 602T-75 598Q-98 598 -114 615T-131 658Q-131 693 -107 713T-50 733Z" />
<glyph unicode="&#x14a;" glyph-name="Eng" horiz-adv-x="761" d="M-14 54L75 73L176 648L96 667L105 721H341L497 366Q509 338 519 307T537 249Q546 217 554 187H559L641 647L561 667L570 721H815L806 667L728 648L606 2Q589 -87 541 -136T402 -185Q366 -185
341 -177T299 -154T275 -121T267 -85Q267 -67 274 -53T293 -27H378V-113Q383 -114 388 -114T399 -114Q415 -114 431 -110T461 -93T487 -61T506 -9L316 440Q303 470 293 502T276 560Q268 591 262 620H258L161 73L241 54L232 0H-23L-14 54Z" />
<glyph unicode="&#x14b;" glyph-name="eng" horiz-adv-x="597" d="M421 373Q424 386 426 400T426 427T415 447T390 455Q368 455 348 447T309 426T273 396T239 363L162 0H33L130 454Q110 451 92 447T59 438Q42 434 27 429L40 488Q54 501 73 513T113 534T155 548T194
553Q222 553 239 540T257 491Q257 486 256 478T253 460Q251 449 250 438H256Q279 462 301 482T348 519T400 544T460 553Q506 553 533 529T561 451Q561 427 555 399L475 9Q462 -54 441 -97T393 -166T333 -203T264 -215Q213 -215 181 -191T149 -132Q149 -104 171
-80H254V-153H259Q291 -153 309 -129T340 -40L421 373Z" />
<glyph unicode="&#x14c;" glyph-name="Omacron" horiz-adv-x="711" d="M321 -12Q256 -12 204 8T115 68T58 162T38 288Q38 393 70 476T154 616T273 703T410 733Q476 733 529 712T619 652T676 558T696 432Q696 325 664 242T579 103T459 17T321 -12ZM325 62Q381 62
424 95T495 185T538 314T553 468Q553 567 517 613T407 659Q351 659 309 625T237 535T194 404T179 250Q179 156 213 109T325 62ZM305 876H610L597 801H292L305 876Z" />
<glyph unicode="&#x14d;" glyph-name="omacron" horiz-adv-x="549" d="M235 -12Q182 -12 142 5T74 51T32 121T18 209Q18 276 39 338T99 448T193 523T316 552Q367 552 407 535T474 489T516 419T530 331Q530 263 510 201T452 92T359 17T235 -12ZM242 56Q279 56 308
77T357 138T387 231T398 350Q398 419 377 451T307 484Q273 484 244 463T194 402T161 309T149 190Q149 119 171 88T242 56ZM198 726H503L490 651H185L198 726Z" />
<glyph unicode="&#x14e;" glyph-name="Obreve" horiz-adv-x="711" d="M321 -12Q256 -12 204 8T115 68T58 162T38 288Q38 393 70 476T154 616T273 703T410 733Q476 733 529 712T619 652T676 558T696 432Q696 325 664 242T579 103T459 17T321 -12ZM325 62Q381 62
424 95T495 185T538 314T553 468Q553 567 517 613T407 659Q351 659 309 625T237 535T194 404T179 250Q179 156 213 109T325 62ZM442 785Q410 785 385 796T340 828T311 874T301 930H366Q371 904 390 887T446 869Q481 869 505 883T540 930H607Q596 861 553 823T442
785Z" />
<glyph unicode="&#x14f;" glyph-name="obreve" horiz-adv-x="549" d="M235 -12Q182 -12 142 5T74 51T32 121T18 209Q18 276 39 338T99 448T193 523T316 552Q367 552 407 535T474 489T516 419T530 331Q530 263 510 201T452 92T359 17T235 -12ZM242 56Q279 56 308
77T357 138T387 231T398 350Q398 419 377 451T307 484Q273 484 244 463T194 402T161 309T149 190Q149 119 171 88T242 56ZM321 630Q289 630 264 641T221 673T194 721T184 782H249Q254 752 271 733T325 714Q360 714 382 730T416 782H483Q471 713 430 672T321 630Z"
/>
<glyph unicode="&#x150;" glyph-name="Ohungarumlaut" horiz-adv-x="711" d="M321 -12Q256 -12 204 8T115 68T58 162T38 288Q38 393 70 476T154 616T273 703T410 733Q476 733 529 712T619 652T676 558T696 432Q696 325 664 242T579 103T459 17T321 -12ZM325 62Q381
62 424 95T495 185T538 314T553 468Q553 567 517 613T407 659Q351 659 309 625T237 535T194 404T179 250Q179 156 213 109T325 62ZM299 794L401 966L486 905L335 769L299 794ZM494 794L596 966L681 905L530 769L494 794Z" />
<glyph unicode="&#x151;" glyph-name="ohungarumlaut" horiz-adv-x="549" d="M235 -12Q182 -12 142 5T74 51T32 121T18 209Q18 276 39 338T99 448T193 523T316 552Q367 552 407 535T474 489T516 419T530 331Q530 263 510 201T452 92T359 17T235 -12ZM242 56Q279
56 308 77T357 138T387 231T398 350Q398 419 377 451T307 484Q273 484 244 463T194 402T161 309T149 190Q149 119 171 88T242 56ZM207 634L311 818L396 757L243 609L207 634ZM402 634L506 818L591 757L438 609L402 634Z" />
<glyph unicode="&#x152;" glyph-name="OE" horiz-adv-x="986" d="M426 71L529 650H439Q314 650 249 551T184 253Q184 198 196 163T232 107T289 79T366 71H426ZM358 0Q198 0 118 73T38 280Q38 381 67 462T150 601T277 690T442 721H987L975 532H909L881 651H667L623
403H728L765 494H827L790 244H729L719 338H611L564 69H803L876 215H946L900 0H358Z" />
<glyph unicode="&#x153;" glyph-name="oe" horiz-adv-x="856" d="M588 -12Q524 -12 485 14T427 87Q393 42 346 15T235 -12Q182 -12 142 5T74 51T32 121T18 209Q18 276 39 338T99 448T193 523T316 552Q388 552 431 522T492 434Q530 488 583 520T703 553Q779 553
821 521T864 434Q864 381 839 345T768 285T660 248T523 229Q522 222 522 213T521 196Q521 161 528 138T549 101T584 82T632 76Q672 76 711 88T793 123L778 59Q764 47 744 35T700 12T648 -5T588 -12ZM242 56Q279 56 308 77T357 138T387 231T398 350Q398 419 377
451T307 484Q273 484 244 463T194 402T161 309T149 190Q149 119 171 88T242 56ZM692 486Q662 486 637 472T591 431T555 369T531 290Q576 293 614 302T680 327T723 369T739 431Q739 486 692 486Z" />
<glyph unicode="&#x154;" glyph-name="Racute" horiz-adv-x="692" d="M-14 54L77 73L178 647L99 667L108 721H410Q471 721 515 708T589 670T632 613T646 541Q646 495 632 462T594 404T540 366T477 343V339L590 71L644 54L635 0H467L344 314H262L217 72L288 54L279
0H-23L-14 54ZM355 381Q399 381 428 394T474 429T498 480T505 543Q505 595 478 621T392 648H319L273 381H355ZM277 814L503 952L545 855L294 770L277 814Z" />
<glyph unicode="&#x155;" glyph-name="racute" horiz-adv-x="438" d="M338 400V460Q309 444 284 417T236 361L160 0H31L128 454Q108 451 90 447T57 438Q40 433 25 428L38 487Q52 500 71 512T111 533T153 547T192 553Q220 553 236 540T252 493Q252 489 251 481T248
462Q246 451 245 438H251Q287 494 322 523T391 552Q419 552 438 536T457 488Q457 462 444 439T417 400H338ZM445 664L669 802L713 703L462 620L445 664Z" />
<glyph unicode="&#x156;" glyph-name="Rcommaaccent" horiz-adv-x="692" d="M-14 54L77 73L178 647L99 667L108 721H410Q471 721 515 708T589 670T632 613T646 541Q646 495 632 462T594 404T540 366T477 343V339L590 71L644 54L635 0H467L344 314H262L217 72L288
54L279 0H-23L-14 54ZM355 381Q399 381 428 394T474 429T498 480T505 543Q505 595 478 621T392 648H319L273 381H355ZM226 -240Q260 -234 282 -226T318 -208T338 -187T346 -161Q339 -168 331 -172T308 -176Q285 -176 270 -163T254 -126Q254 -97 275 -80T327 -62Q364
-62 388 -82T412 -144Q412 -197 370 -235T233 -282L226 -240Z" />
<glyph unicode="&#x157;" glyph-name="rcommaaccent" horiz-adv-x="438" d="M338 400V460Q309 444 284 417T236 361L160 0H31L128 454Q108 451 90 447T57 438Q40 433 25 428L38 487Q52 500 71 512T111 533T153 547T192 553Q220 553 236 540T252 493Q252 489 251
481T248 462Q246 451 245 438H251Q287 494 322 523T391 552Q419 552 438 536T457 488Q457 462 444 439T417 400H338ZM-18 -240Q16 -234 38 -226T74 -208T94 -187T102 -161Q95 -168 87 -172T64 -176Q41 -176 26 -163T10 -126Q10 -97 31 -80T83 -62Q120 -62 144 -82T168
-144Q168 -197 126 -235T-11 -282L-18 -240Z" />
<glyph unicode="&#x158;" glyph-name="Rcaron" horiz-adv-x="692" d="M-14 54L77 73L178 647L99 667L108 721H410Q471 721 515 708T589 670T632 613T646 541Q646 495 632 462T594 404T540 366T477 343V339L590 71L644 54L635 0H467L344 314H262L217 72L288 54L279
0H-23L-14 54ZM355 381Q399 381 428 394T474 429T498 480T505 543Q505 595 478 621T392 648H319L273 381H355ZM572 913L417 781H355L239 918L268 948L391 876L549 948L572 913Z" />
<glyph unicode="&#x159;" glyph-name="rcaron" horiz-adv-x="438" d="M338 400V460Q309 444 284 417T236 361L160 0H31L128 454Q108 451 90 447T57 438Q40 433 25 428L38 487Q52 500 71 512T111 533T153 547T192 553Q220 553 236 540T252 493Q252 489 251 481T248
462Q246 451 245 438H251Q287 494 322 523T391 552Q419 552 438 536T457 488Q457 462 444 439T417 400H338ZM716 765L556 620H494L383 770L412 800L534 715L693 800L716 765Z" />
<glyph unicode="&#x15a;" glyph-name="Sacute" horiz-adv-x="564" d="M237 -12Q154 -12 99 3T5 38L23 196H100L116 92Q139 78 166 70T236 62Q304 62 343 93T382 179Q382 200 377 216T359 246T328 273T280 303L224 334Q163 368 129 411T94 521Q94 567 111 606T160
674T238 718T343 734Q423 734 471 721T550 693L536 548H461L446 635Q440 639 432 643T411 652T380 658T337 661Q287 661 252 635T217 559Q217 541 220 526T234 498T264 471T313 440L368 409Q402 389 429 371T475 331T504 284T514 224Q514 171 497 128T444 53T357
5T237 -12ZM255 814L481 952L523 855L272 770L255 814Z" />
<glyph unicode="&#x15b;" glyph-name="sacute" horiz-adv-x="424" d="M166 -13Q121 -13 87 -4T29 22T-6 58T-18 101Q-18 115 -12 131T6 159H101V67Q114 61 130 57T167 53Q215 53 241 73T267 129Q267 161 249 178T191 219L158 238Q111 265 85 298T58 384Q58 420
71 450T111 503T176 539T262 552Q346 552 384 524T423 453Q423 440 417 424T399 394H309V477Q298 482 286 485T257 489Q217 489 191 472T165 421Q165 390 182 372T240 331L273 312Q322 283 352 248T382 159Q382 124 369 93T329 38T262 1T166 -13ZM426 664L650 802L694
703L443 620L426 664Z" />
<glyph unicode="&#x15c;" glyph-name="Scircumflex" horiz-adv-x="564" d="M237 -12Q154 -12 99 3T5 38L23 196H100L116 92Q139 78 166 70T236 62Q304 62 343 93T382 179Q382 200 377 216T359 246T328 273T280 303L224 334Q163 368 129 411T94 521Q94 567 111
606T160 674T238 718T343 734Q423 734 471 721T550 693L536 548H461L446 635Q440 639 432 643T411 652T380 658T337 661Q287 661 252 635T217 559Q217 541 220 526T234 498T264 471T313 440L368 409Q402 389 429 371T475 331T504 284T514 224Q514 171 497 128T444
53T357 5T237 -12ZM198 804L353 936H415L531 799L502 769L379 841L221 769L198 804Z" />
<glyph unicode="&#x15d;" glyph-name="scircumflex" horiz-adv-x="424" d="M166 -13Q121 -13 87 -4T29 22T-6 58T-18 101Q-18 115 -12 131T6 159H101V67Q114 61 130 57T167 53Q215 53 241 73T267 129Q267 161 249 178T191 219L158 238Q111 265 85 298T58 384Q58
420 71 450T111 503T176 539T262 552Q346 552 384 524T423 453Q423 440 417 424T399 394H309V477Q298 482 286 485T257 489Q217 489 191 472T165 421Q165 390 182 372T240 331L273 312Q322 283 352 248T382 159Q382 124 369 93T329 38T262 1T166 -13ZM353 654L513
799H575L686 649L657 619L535 704L376 619L353 654Z" />
<glyph unicode="&#x15e;" glyph-name="Scedilla" horiz-adv-x="564" d="M88 -199Q132 -198 160 -194T204 -182T226 -166T232 -146Q232 -131 215 -122T149 -109L172 -9Q115 -4 76 9T5 38L23 196H100L116 92Q139 78 166 70T236 62Q304 62 343 93T382 179Q382 200
377 216T359 246T328 273T280 303L224 334Q163 368 129 411T94 521Q94 567 111 606T160 674T238 718T343 734Q423 734 471 721T550 693L536 548H461L446 635Q440 639 432 643T411 652T380 658T337 661Q287 661 252 635T217 559Q217 541 220 526T234 498T264 471T313
440L368 409Q402 389 429 371T475 331T504 284T514 224Q514 171 497 128T444 53T357 5T237 -12H220L208 -57Q274 -63 301 -85T329 -138Q329 -161 319 -180T282 -213T206 -234T82 -242L88 -199Z" />
<glyph unicode="&#x15f;" glyph-name="scedilla" horiz-adv-x="424" d="M12 -199Q56 -198 84 -194T128 -182T150 -166T156 -146Q156 -131 139 -122T73 -109L96 -6Q39 6 11 36T-18 101Q-18 115 -12 131T6 159H101V67Q114 61 130 57T167 53Q215 53 241 73T267 129Q267
161 249 178T191 219L158 238Q111 265 85 298T58 384Q58 420 71 450T111 503T176 539T262 552Q346 552 384 524T423 453Q423 440 417 424T399 394H309V477Q298 482 286 485T257 489Q217 489 191 472T165 421Q165 390 182 372T240 331L273 312Q322 283 352 248T382
159Q382 124 369 93T329 38T262 1T166 -13H142L132 -57Q198 -63 225 -85T253 -138Q253 -161 243 -180T206 -213T130 -234T6 -242L12 -199Z" />
<glyph unicode="&#x160;" glyph-name="Scaron" horiz-adv-x="564" d="M237 -12Q154 -12 99 3T5 38L23 196H100L116 92Q139 78 166 70T236 62Q304 62 343 93T382 179Q382 200 377 216T359 246T328 273T280 303L224 334Q163 368 129 411T94 521Q94 567 111 606T160
674T238 718T343 734Q423 734 471 721T550 693L536 548H461L446 635Q440 639 432 643T411 652T380 658T337 661Q287 661 252 635T217 559Q217 541 220 526T234 498T264 471T313 440L368 409Q402 389 429 371T475 331T504 284T514 224Q514 171 497 128T444 53T357
5T237 -12ZM537 913L382 781H320L204 918L233 948L356 876L514 948L537 913Z" />
<glyph unicode="&#x161;" glyph-name="scaron" horiz-adv-x="424" d="M166 -13Q121 -13 87 -4T29 22T-6 58T-18 101Q-18 115 -12 131T6 159H101V67Q114 61 130 57T167 53Q215 53 241 73T267 129Q267 161 249 178T191 219L158 238Q111 265 85 298T58 384Q58 420
71 450T111 503T176 539T262 552Q346 552 384 524T423 453Q423 440 417 424T399 394H309V477Q298 482 286 485T257 489Q217 489 191 472T165 421Q165 390 182 372T240 331L273 312Q322 283 352 248T382 159Q382 124 369 93T329 38T262 1T166 -13ZM716 765L556 620H494L383
770L412 800L534 715L693 800L716 765Z" />
<glyph unicode="&#x162;" glyph-name="Tcommaaccent" horiz-adv-x="649" d="M121 54L213 72L316 651H196L135 500H58L105 721H688L664 500H589L577 651H458L355 72L439 54L430 0H112L121 54ZM412 -240Q446 -234 468 -226T504 -208T524 -187T532 -161Q525 -168
517 -172T494 -176Q471 -176 456 -163T440 -126Q440 -97 461 -80T513 -62Q550 -62 574 -82T598 -144Q598 -197 556 -235T419 -282L412 -240Z" />
<glyph unicode="&#x163;" glyph-name="tcommaaccent" horiz-adv-x="370" d="M172 73Q200 75 225 80T269 92Q291 99 310 107L296 46Q270 26 231 8T138 -10Q100 -10 75 10T49 75Q49 93 53 110L130 471H54L64 520L146 545L172 669H299L272 542H385L370 471H257L172
73ZM21 -240Q55 -234 77 -226T113 -208T133 -187T141 -161Q134 -168 126 -172T103 -176Q80 -176 65 -163T49 -126Q49 -97 70 -80T122 -62Q159 -62 183 -82T207 -144Q207 -197 165 -235T28 -282L21 -240Z" />
<glyph unicode="&#x164;" glyph-name="Tcaron" horiz-adv-x="649" d="M121 54L213 72L316 651H196L135 500H58L105 721H688L664 500H589L577 651H458L355 72L439 54L430 0H112L121 54ZM583 913L428 781H366L250 918L279 948L402 876L560 948L583 913Z" />
<glyph unicode="&#x165;" glyph-name="tcaron" horiz-adv-x="370" d="M172 73Q200 75 225 80T269 92Q291 99 310 107L296 46Q270 26 231 8T138 -10Q100 -10 75 10T49 75Q49 93 53 110L130 471H54L64 520L146 545L172 669H299L272 542H385L370 471H257L172 73ZM338
608Q352 648 366 702T388 804H504Q487 744 462 696T404 608H338Z" />
<glyph unicode="&#x166;" glyph-name="Tbar" horiz-adv-x="649" d="M141 425H276L316 651H196L135 500H58L105 721H688L664 500H589L577 651H458L418 425H555L544 361H406L355 72L439 54L430 0H112L121 54L213 72L264 361H130L141 425Z" />
<glyph unicode="&#x167;" glyph-name="tbar" horiz-adv-x="370" d="M234 364H353L341 298H220L172 73Q200 75 225 80T269 92Q291 99 310 107L296 46Q270 26 231 8T138 -10Q100 -10 75 10T49 75Q49 93 53 110L93 298H24L36 364H107L130 471H54L64 520L146 545L172
669H299L272 542H385L370 471H257L234 364Z" />
<glyph unicode="&#x168;" glyph-name="Utilde" horiz-adv-x="733" d="M353 -14Q280 -14 229 2T146 46T100 111T85 190Q85 204 86 218T90 247L160 648L83 667L92 721H396L387 667L303 649L232 249Q226 216 226 190Q226 130 260 99T368 67Q405 67 434 75T486 102T523
152T546 229L621 648L542 667L551 721H791L782 667L708 648L630 215Q610 101 543 44T353 -14ZM298 806Q325 860 357 890T431 920Q448 920 466 914T502 900T535 886T562 880Q579 880 594 890T627 927L670 902Q643 848 612 821T538 794Q521 794 503 800T468 813T436
826T407 832Q389 832 374 820T341 781L298 806Z" />
<glyph unicode="&#x169;" glyph-name="utilde" horiz-adv-x="594" d="M465 71Q484 73 501 77T533 87L563 97L549 38Q523 18 488 5T414 -9Q375 -9 357 12T346 86L347 94H341Q318 71 298 52T257 19T212 -3T156 -11Q106 -11 77 17T47 101Q47 125 53 152L117 454Q98
450 80 446T48 438Q31 434 16 428L29 487Q58 514 101 533T182 553Q213 553 231 540T249 489Q249 470 243 443L184 167Q181 151 180 137T181 111T193 92T221 85Q260 85 290 108T358 169L437 542H566L465 71ZM168 656Q195 710 227 740T301 770Q318 770 336 764T372
750T405 736T432 730Q449 730 464 740T497 777L540 752Q513 698 482 671T408 644Q391 644 373 650T338 663T306 676T277 682Q259 682 244 670T211 631L168 656Z" />
<glyph unicode="&#x16a;" glyph-name="Umacron" horiz-adv-x="733" d="M353 -14Q280 -14 229 2T146 46T100 111T85 190Q85 204 86 218T90 247L160 648L83 667L92 721H396L387 667L303 649L232 249Q226 216 226 190Q226 130 260 99T368 67Q405 67 434 75T486 102T523
152T546 229L621 648L542 667L551 721H791L782 667L708 648L630 215Q610 101 543 44T353 -14ZM334 876H639L626 801H321L334 876Z" />
<glyph unicode="&#x16b;" glyph-name="umacron" horiz-adv-x="594" d="M465 71Q484 73 501 77T533 87L563 97L549 38Q523 18 488 5T414 -9Q375 -9 357 12T346 86L347 94H341Q318 71 298 52T257 19T212 -3T156 -11Q106 -11 77 17T47 101Q47 125 53 152L117 454Q98
450 80 446T48 438Q31 434 16 428L29 487Q58 514 101 533T182 553Q213 553 231 540T249 489Q249 470 243 443L184 167Q181 151 180 137T181 111T193 92T221 85Q260 85 290 108T358 169L437 542H566L465 71ZM213 726H518L505 651H200L213 726Z" />
<glyph unicode="&#x16c;" glyph-name="Ubreve" horiz-adv-x="733" d="M353 -14Q280 -14 229 2T146 46T100 111T85 190Q85 204 86 218T90 247L160 648L83 667L92 721H396L387 667L303 649L232 249Q226 216 226 190Q226 130 260 99T368 67Q405 67 434 75T486 102T523
152T546 229L621 648L542 667L551 721H791L782 667L708 648L630 215Q610 101 543 44T353 -14ZM479 785Q447 785 422 796T377 828T348 874T338 930H403Q408 904 427 887T483 869Q518 869 542 883T577 930H644Q633 861 590 823T479 785Z" />
<glyph unicode="&#x16d;" glyph-name="ubreve" horiz-adv-x="594" d="M465 71Q484 73 501 77T533 87L563 97L549 38Q523 18 488 5T414 -9Q375 -9 357 12T346 86L347 94H341Q318 71 298 52T257 19T212 -3T156 -11Q106 -11 77 17T47 101Q47 125 53 152L117 454Q98
450 80 446T48 438Q31 434 16 428L29 487Q58 514 101 533T182 553Q213 553 231 540T249 489Q249 470 243 443L184 167Q181 151 180 137T181 111T193 92T221 85Q260 85 290 108T358 169L437 542H566L465 71ZM352 630Q320 630 295 641T252 673T225 721T215 782H280Q285
752 302 733T356 714Q391 714 413 730T447 782H514Q502 713 461 672T352 630Z" />
<glyph unicode="&#x16e;" glyph-name="Uring" horiz-adv-x="733" d="M353 -14Q280 -14 229 2T146 46T100 111T85 190Q85 204 86 218T90 247L160 648L83 667L92 721H396L387 667L303 649L232 249Q226 216 226 190Q226 130 260 99T368 67Q405 67 434 75T486 102T523
152T546 229L621 648L542 667L551 721H791L782 667L708 648L630 215Q610 101 543 44T353 -14ZM468 753Q442 753 419 762T379 788T353 825T343 872Q343 896 352 917T379 955T419 980T468 990Q494 990 516 981T555 955T581 918T591 872Q591 847 582 826T556 788T517
763T468 753ZM468 797Q501 797 520 817T540 872Q540 906 521 926T468 946Q435 946 415 926T395 872Q395 837 415 817T468 797Z" />
<glyph unicode="&#x16f;" glyph-name="uring" horiz-adv-x="594" d="M465 71Q484 73 501 77T533 87L563 97L549 38Q523 18 488 5T414 -9Q375 -9 357 12T346 86L347 94H341Q318 71 298 52T257 19T212 -3T156 -11Q106 -11 77 17T47 101Q47 125 53 152L117 454Q98
450 80 446T48 438Q31 434 16 428L29 487Q58 514 101 533T182 553Q213 553 231 540T249 489Q249 470 243 443L184 167Q181 151 180 137T181 111T193 92T221 85Q260 85 290 108T358 169L437 542H566L465 71ZM359 611Q333 611 310 620T270 646T244 683T234 730Q234
754 243 775T270 813T310 838T359 848Q385 848 407 839T446 813T472 776T482 730Q482 705 473 684T447 646T408 621T359 611ZM359 655Q392 655 411 675T431 730Q431 764 412 784T359 804Q326 804 306 784T286 730Q286 695 306 675T359 655Z" />
<glyph unicode="&#x170;" glyph-name="Uhungarumlaut" horiz-adv-x="733" d="M353 -14Q280 -14 229 2T146 46T100 111T85 190Q85 204 86 218T90 247L160 648L83 667L92 721H396L387 667L303 649L232 249Q226 216 226 190Q226 130 260 99T368 67Q405 67 434 75T486
102T523 152T546 229L621 648L542 667L551 721H791L782 667L708 648L630 215Q610 101 543 44T353 -14ZM338 794L440 966L525 905L374 769L338 794ZM533 794L635 966L720 905L569 769L533 794Z" />
<glyph unicode="&#x171;" glyph-name="uhungarumlaut" horiz-adv-x="594" d="M465 71Q484 73 501 77T533 87L563 97L549 38Q523 18 488 5T414 -9Q375 -9 357 12T346 86L347 94H341Q318 71 298 52T257 19T212 -3T156 -11Q106 -11 77 17T47 101Q47 125 53 152L117
454Q98 450 80 446T48 438Q31 434 16 428L29 487Q58 514 101 533T182 553Q213 553 231 540T249 489Q249 470 243 443L184 167Q181 151 180 137T181 111T193 92T221 85Q260 85 290 108T358 169L437 542H566L465 71ZM222 634L326 818L411 757L258 609L222 634ZM417
634L521 818L606 757L453 609L417 634Z" />
<glyph unicode="&#x172;" glyph-name="Uogonek" horiz-adv-x="733" d="M353 -14Q280 -14 229 2T146 46T100 111T85 190Q85 204 86 218T90 247L160 648L83 667L92 721H396L387 667L303 649L232 249Q226 216 226 190Q226 130 260 99T368 67Q405 67 434 75T486 102T523
152T546 229L621 648L542 667L551 721H791L782 667L708 648L630 215Q608 88 523 31Q498 15 471 -2T420 -38T382 -78T367 -123Q367 -140 377 -150T411 -161Q428 -161 438 -158T459 -151L450 -202Q436 -211 417 -216T370 -222Q314 -222 285 -198T256 -138Q256 -117
265 -99T289 -65T323 -37T362 -14H353V-14Z" />
<glyph unicode="&#x173;" glyph-name="uogonek" horiz-adv-x="594" d="M403 -222Q347 -222 318 -198T289 -138Q289 -116 299 -97T327 -62T365 -32T408 -9Q373 -7 356 14T346 86L347 94H341Q318 71 298 52T257 19T212 -3T156 -11Q106 -11 77 17T47 101Q47 125 53
152L117 454Q98 450 80 446T48 438Q31 434 16 428L29 487Q58 514 101 533T182 553Q213 553 231 540T249 489Q249 470 243 443L184 167Q181 152 180 137T181 111T193 92T221 85Q260 85 290 108T358 169L437 542H566L465 71Q484 73 501 77T533 87L563 97L549 38Q519
17 492 -3T444 -42T412 -82T400 -123Q400 -140 410 -150T444 -161Q461 -161 471 -158T492 -151L483 -202Q469 -211 450 -216T403 -222Z" />
<glyph unicode="&#x174;" glyph-name="Wcircumflex" horiz-adv-x="1007" d="M135 648L82 667L91 721H358L349 667L273 648L290 409Q292 386 293 362T294 306T295 231T295 128H300Q318 178 336 227Q352 269 371 317T408 406L551 721H649L676 414Q679 377 681 328T685
234Q687 181 688 127H693Q713 181 732 233Q749 278 767 327T802 412L902 648L831 667L840 721H1068L1059 667L990 648L713 0H586L561 293Q557 333 557 378T557 464Q558 510 559 556H554Q537 512 519 467Q504 429 485 383T448 296L314 0H185L135 648ZM424 804L579
936H641L757 799L728 769L605 841L447 769L424 804Z" />
<glyph unicode="&#x175;" glyph-name="wcircumflex" horiz-adv-x="770" d="M128 0Q126 61 125 118T121 231T115 341T106 452Q88 449 72 445T44 437Q30 433 19 429L32 488Q58 512 92 532T161 553Q186 553 204 537T228 477Q233 428 233 369T236 244Q236 212 235
170T228 86H233Q248 126 262 166T291 240Q320 309 346 381T398 542H499Q523 392 526 218Q526 195 526 170T524 124Q523 99 522 75H527Q545 113 563 149T595 217Q626 285 644 342T671 453H614L627 526Q640 538 659 546T695 554Q726 554 749 539T773 483Q773 451
754 396T704 274T630 137T541 0H426Q426 78 425 140T420 264Q417 332 420 406H415Q404 365 395 328T373 262Q346 199 315 134T245 0H128ZM291 654L451 799H513L624 649L595 619L473 704L314 619L291 654Z" />
<glyph unicode="&#x176;" glyph-name="Ycircumflex" horiz-adv-x="663" d="M139 54L229 73L269 303L130 648L76 667L85 721H354L345 667L275 648L377 373H381L575 649L506 667L515 721H729L721 667L663 648L410 301L370 73L450 54L441 0H130L139 54ZM259 804L414
936H476L592 799L563 769L440 841L282 769L259 804Z" />
<glyph unicode="&#x177;" glyph-name="ycircumflex" horiz-adv-x="550" d="M27 -217Q-5 -217 -28 -205T-64 -182L-51 -119Q-35 -124 -21 -128T15 -132Q37 -132 57 -130T96 -121T135 -100T177 -62Q174 5 168 76T153 216T135 345T116 453Q97 449 80 445T49 437Q33
433 19 428L31 487Q60 512 97 532T170 553Q196 553 215 539T242 479Q251 431 259 363T271 217Q274 175 272 134T265 49H270Q296 93 316 133T352 208Q383 275 404 333T439 453H381L395 526Q407 538 427 546T465 554Q497 554 520 538T543 480Q543 448 528 400T484
291T416 161T328 18Q286 -47 250 -91T178 -164T107 -204T27 -217ZM165 654L325 799H387L498 649L469 619L347 704L188 619L165 654Z" />
<glyph unicode="&#x178;" glyph-name="Ydieresis" horiz-adv-x="663" d="M139 54L229 73L269 303L130 648L76 667L85 721H354L345 667L275 648L377 373H381L575 649L506 667L515 721H729L721 667L663 648L410 301L370 73L450 54L441 0H130L139 54ZM318 783Q289
783 271 803T252 850Q252 879 273 899T323 919Q353 919 371 899T389 852Q389 823 368 803T318 783ZM542 783Q513 783 495 803T476 850Q476 879 497 899T547 919Q577 919 595 899T613 852Q613 823 592 803T542 783Z" />
<glyph unicode="&#x179;" glyph-name="Zacute" horiz-adv-x="581" d="M-19 66L452 644V649H224L157 510H83L124 721H631L620 655L150 76V72H399L470 218H544L500 0H-30L-19 66ZM255 814L481 952L523 855L272 770L255 814Z" />
<glyph unicode="&#x17a;" glyph-name="zacute" horiz-adv-x="476" d="M-23 51L344 424L144 434Q136 420 131 408T123 384Q119 372 117 361H67Q64 375 63 388T62 413Q62 474 91 513T175 552Q203 552 228 544T280 523T335 499T397 480L456 542H500V491L131 117L340
106Q348 121 353 136T363 163Q367 177 370 190H421Q424 176 425 163T426 136Q426 72 397 31T313 -11Q284 -11 257 -2T202 19T144 44T78 63L20 0H-23V51ZM206 664L430 802L474 703L223 620L206 664Z" />
<glyph unicode="&#x17b;" glyph-name="Zdotaccent" horiz-adv-x="581" d="M-19 66L452 644V649H224L157 510H83L124 721H631L620 655L150 76V72H399L470 218H544L500 0H-30L-19 66ZM381 781Q349 781 328 801T307 853Q307 884 328 904T381 925Q413 925 434 905T455
853Q455 822 434 802T381 781Z" />
<glyph unicode="&#x17c;" glyph-name="zdotaccent" horiz-adv-x="476" d="M-23 51L344 424L144 434Q136 420 131 408T123 384Q119 372 117 361H67Q64 375 63 388T62 413Q62 474 91 513T175 552Q203 552 228 544T280 523T335 499T397 480L456 542H500V491L131 117L340
106Q348 121 353 136T363 163Q367 177 370 190H421Q424 176 425 163T426 136Q426 72 397 31T313 -11Q284 -11 257 -2T202 19T144 44T78 63L20 0H-23V51ZM293 631Q261 631 240 651T219 703Q219 734 240 754T293 775Q325 775 346 755T367 703Q367 672 346 652T293
631Z" />
<glyph unicode="&#x17d;" glyph-name="Zcaron" horiz-adv-x="581" d="M-19 66L452 644V649H224L157 510H83L124 721H631L620 655L150 76V72H399L470 218H544L500 0H-30L-19 66ZM558 913L403 781H341L225 918L254 948L377 876L535 948L558 913Z" />
<glyph unicode="&#x17e;" glyph-name="zcaron" horiz-adv-x="476" d="M-23 51L344 424L144 434Q136 420 131 408T123 384Q119 372 117 361H67Q64 375 63 388T62 413Q62 474 91 513T175 552Q203 552 228 544T280 523T335 499T397 480L456 542H500V491L131 117L340
106Q348 121 353 136T363 163Q367 177 370 190H421Q424 176 425 163T426 136Q426 72 397 31T313 -11Q284 -11 257 -2T202 19T144 44T78 63L20 0H-23V51ZM497 765L337 620H275L164 770L193 800L315 715L474 800L497 765Z" />
<glyph unicode="&#x192;" glyph-name="florin" horiz-adv-x="411" d="M243 360L172 15Q152 -80 100 -135T-41 -190Q-90 -190 -120 -169T-151 -115Q-151 -103 -146 -91T-129 -68H-54V-127Q-49 -128 -40 -128Q-23 -128 -11 -123T9 -106T24 -74T36 -24L114 360H34L46
430H128L147 521Q169 627 230 678T383 730Q446 730 481 709T516 651Q516 637 510 622T494 595H406V667Q401 668 396 668T384 669Q343 669 319 639T279 531L258 430H385L372 360H243Z" />
<glyph unicode="&#x1fa;" glyph-name="Aringacute" horiz-adv-x="708" d="M432 213H191L120 72L196 54L188 0H-49L-40 54L28 72L374 721H498L598 72L658 54L649 0H358L367 54L450 72L432 213ZM225 279H423L404 434Q400 463 398 494T393 553Q390 585 389 615H384Q373
587 361 558Q350 533 337 503T308 442L225 279ZM440 762Q414 762 391 771T351 797T325 834T315 881Q315 905 324 926T351 964T391 989T440 999Q466 999 488 990T527 964T553 927T563 881Q563 856 554 835T528 797T489 772T440 762ZM440 806Q473 806 492 826T512
881Q512 915 493 935T440 955Q407 955 387 935T367 881Q367 846 387 826T440 806ZM343 1054L569 1192L611 1095L360 1010L343 1054Z" />
<glyph unicode="&#x1fb;" glyph-name="aringacute" horiz-adv-x="587" d="M459 71Q478 73 495 77T527 87L557 97L542 38Q517 18 481 5T411 -9Q335 -9 335 72Q335 80 335 85T337 99H334Q289 48 246 18T147 -12Q115 -12 91 -1T49 31T23 78T14 139Q14 222 41 295T113
422T214 508T329 540Q366 540 387 531T426 505H432L447 542H547L558 537L459 71ZM202 76Q236 76 273 103T353 176L406 426Q392 446 377 458T330 471Q296 471 263 445T204 375T161 275T145 160Q145 115 156 96T202 76ZM373 611Q347 611 324 620T284 646T258 683T248
730Q248 754 257 775T284 813T324 838T373 848Q399 848 421 839T460 813T486 776T496 730Q496 705 487 684T461 646T422 621T373 611ZM373 655Q406 655 425 675T445 730Q445 764 426 784T373 804Q340 804 320 784T300 730Q300 695 320 675T373 655ZM286 932L512
1070L554 973L303 888L286 932Z" />
<glyph unicode="&#x1fc;" glyph-name="AEacute" horiz-adv-x="986" d="M975 532H909L881 651H669L625 403H731L768 494H830L793 244H732L722 338H613L566 69H803L876 215H946L900 0H333L342 54L432 73L455 203H217L125 73L200 54L191 0H-36L-27 54L30 73L467 658L399
667L408 721H987L975 532ZM545 663Q531 634 502 590T431 490L265 269H466L503 475Q508 507 516 540T533 601Q542 633 551 663H545ZM629 814L855 952L897 855L646 770L629 814Z" />
<glyph unicode="&#x1fd;" glyph-name="aeacute" horiz-adv-x="767" d="M278 552Q338 552 380 533T439 474H442Q477 508 523 530T628 553Q704 553 746 521T789 434Q789 383 764 349T693 293T585 260T448 242Q447 235 446 220T445 197Q445 162 452 139T473 101T509
82T557 76Q597 76 636 88T718 123L703 59Q689 47 669 35T624 12T569 -5T504 -12Q392 -12 346 69H337Q329 58 315 44T281 16T233 -5T170 -14Q141 -14 114 -6T67 18T34 60T21 119Q21 209 98 252T329 300L340 357Q345 384 344 407T332 448T304 475T255 485Q236 485
220 481T195 471V373H110Q99 384 91 398T82 431Q82 453 95 475T132 514T193 541T278 552ZM319 188Q319 215 322 244Q265 239 231 231T179 210T154 177T148 132Q148 97 165 78T212 58Q250 58 279 78T325 125Q319 153 319 188ZM617 486Q557 486 517 436T456 303Q501
306 539 314T605 336T648 374T664 431Q664 486 617 486ZM361 664L585 802L629 703L378 620L361 664Z" />
<glyph unicode="&#x1fe;" glyph-name="Oslashacute" horiz-adv-x="711" d="M647 616Q696 541 696 432Q696 325 664 242T579 103T459 17T321 -12Q204 -12 131 52L49 -38L0 2L89 99Q64 136 51 183T38 288Q38 393 70 476T154 616T273 703T410 733Q471 733 520 715T606
664L683 748L732 708L647 616ZM172 248Q172 218 175 193L538 590Q503 659 407 659Q351 659 308 625T234 533T188 402T172 248ZM325 62Q381 62 425 96T499 186T544 316T560 470Q560 496 557 517L196 122Q230 62 325 62ZM328 814L554 952L596 855L345 770L328 814Z"
/>
<glyph unicode="&#x1ff;" glyph-name="oslashacute" horiz-adv-x="549" d="M235 -12Q187 -12 150 1T86 39L14 -34L-29 5L49 84Q18 136 18 209Q18 276 39 338T99 448T193 523T316 552Q361 552 396 539T459 503L528 574L571 535L496 459Q530 403 530 331Q530 263
510 201T452 92T359 17T235 -12ZM242 56Q279 56 309 78T360 140T393 234T405 353V365L153 108Q165 80 187 68T242 56ZM141 178L391 434Q367 484 307 484Q273 484 243 462T190 400T154 305T141 185V178ZM236 664L460 802L504 703L253 620L236 664Z" />
<glyph unicode="&#x218;" glyph-name="Scommaaccent" horiz-adv-x="564" d="M237 -12Q154 -12 99 3T5 38L23 196H100L116 92Q139 78 166 70T236 62Q304 62 343 93T382 179Q382 200 377 216T359 246T328 273T280 303L224 334Q163 368 129 411T94 521Q94 567 111
606T160 674T238 718T343 734Q423 734 471 721T550 693L536 548H461L446 635Q440 639 432 643T411 652T380 658T337 661Q287 661 252 635T217 559Q217 541 220 526T234 498T264 471T313 440L368 409Q402 389 429 371T475 331T504 284T514 224Q514 171 497 128T444
53T357 5T237 -12ZM375 -240Q409 -234 431 -226T467 -208T487 -187T495 -161Q488 -168 480 -172T457 -176Q434 -176 419 -163T403 -126Q403 -97 424 -80T476 -62Q513 -62 537 -82T561 -144Q561 -197 519 -235T382 -282L375 -240Z" />
<glyph unicode="&#x219;" glyph-name="scommaaccent" horiz-adv-x="424" d="M166 -13Q121 -13 87 -4T29 22T-6 58T-18 101Q-18 115 -12 131T6 159H101V67Q114 61 130 57T167 53Q215 53 241 73T267 129Q267 161 249 178T191 219L158 238Q111 265 85 298T58 384Q58
420 71 450T111 503T176 539T262 552Q346 552 384 524T423 453Q423 440 417 424T399 394H309V477Q298 482 286 485T257 489Q217 489 191 472T165 421Q165 390 182 372T240 331L273 312Q322 283 352 248T382 159Q382 124 369 93T329 38T262 1T166 -13ZM44 -240Q78
-234 100 -226T136 -208T156 -187T164 -161Q157 -168 149 -172T126 -176Q103 -176 88 -163T72 -126Q72 -97 93 -80T145 -62Q182 -62 206 -82T230 -144Q230 -197 188 -235T51 -282L44 -240Z" />
<glyph unicode="&#x21a;" glyph-name="uni021A" horiz-adv-x="649" d="M121 54L213 72L316 651H196L135 500H58L105 721H688L664 500H589L577 651H458L355 72L439 54L430 0H112L121 54ZM412 -240Q446 -234 468 -226T504 -208T524 -187T532 -161Q525 -168 517 -172T494
-176Q471 -176 456 -163T440 -126Q440 -97 461 -80T513 -62Q550 -62 574 -82T598 -144Q598 -197 556 -235T419 -282L412 -240Z" />
<glyph unicode="&#x21b;" glyph-name="uni021B" horiz-adv-x="370" d="M172 73Q200 75 225 80T269 92Q291 99 310 107L296 46Q270 26 231 8T138 -10Q100 -10 75 10T49 75Q49 93 53 110L130 471H54L64 520L146 545L172 669H299L272 542H385L370 471H257L172 73ZM21
-240Q55 -234 77 -226T113 -208T133 -187T141 -161Q134 -168 126 -172T103 -176Q80 -176 65 -163T49 -126Q49 -97 70 -80T122 -62Q159 -62 183 -82T207 -144Q207 -197 165 -235T28 -282L21 -240Z" />
<glyph unicode="&#x237;" glyph-name="uni0237" horiz-adv-x="292" d="M-48 -215Q-105 -215 -137 -191T-170 -132Q-170 -104 -148 -80H-65V-153H-60Q-42 -153 -28 -150T-3 -135T16 -105T32 -53L137 454Q117 451 98 447T64 438Q46 433 31 428L44 487Q58 500 77
512T118 533T161 547T201 553Q228 553 247 540T266 490Q266 481 265 471T261 449L162 -26Q151 -77 131 -113T84 -171T24 -204T-48 -215Z" />
<glyph unicode="&#x2c6;" glyph-name="circumflex" horiz-adv-x="500" d="M142 654L302 799H364L475 649L446 619L324 704L165 619L142 654Z" />
<glyph unicode="&#x2c7;" glyph-name="caron" horiz-adv-x="500" d="M482 765L322 620H260L149 770L178 800L300 715L459 800L482 765Z" />
<glyph unicode="&#x2d8;" glyph-name="breve" horiz-adv-x="500" d="M297 630Q265 630 240 641T197 673T170 721T160 782H225Q230 752 247 733T301 714Q336 714 358 730T392 782H459Q447 713 406 672T297 630Z" />
<glyph unicode="&#x2d9;" glyph-name="dotaccent" horiz-adv-x="500" d="M293 631Q261 631 240 651T219 703Q219 734 240 754T293 775Q325 775 346 755T367 703Q367 672 346 652T293 631Z" />
<glyph unicode="&#x2da;" glyph-name="ring" horiz-adv-x="500" d="M320 611Q294 611 271 620T231 646T205 683T195 730Q195 754 204 775T231 813T271 838T320 848Q346 848 368 839T407 813T433 776T443 730Q443 705 434 684T408 646T369 621T320 611ZM320 655Q353
655 372 675T392 730Q392 764 373 784T320 804Q287 804 267 784T247 730Q247 695 267 675T320 655Z" />
<glyph unicode="&#x2db;" glyph-name="ogonek" horiz-adv-x="500" d="M181 -222Q125 -222 96 -198T67 -138Q67 -113 80 -92T113 -53T158 -22T208 0H263Q221 -30 200 -63T178 -123Q178 -140 188 -150T222 -161Q239 -161 249 -158T270 -151L261 -202Q247 -211 228
-216T181 -222Z" />
<glyph unicode="&#x2dc;" glyph-name="tilde" horiz-adv-x="500" d="M133 656Q160 710 192 740T266 770Q283 770 301 764T337 750T370 736T397 730Q414 730 429 740T462 777L505 752Q478 698 447 671T373 644Q356 644 338 650T303 663T271 676T242 682Q224 682
209 670T176 631L133 656Z" />
<glyph unicode="&#x2dd;" glyph-name="hungarumlaut" horiz-adv-x="500" d="M181 634L285 818L370 757L217 609L181 634ZM376 634L480 818L565 757L412 609L376 634Z" />
</font>
</defs>
</svg>
